<svg xmlns="http://www.w3.org/2000/svg" viewBox="225 195 1315 320" role="img" aria-label="SpeakSpace"><path fill="#01CBC3" opacity="1.000000" stroke="none" 
	d="
M475.991180,225.061371 
	C488.100983,230.209122 497.425171,238.979691 504.966370,249.307114 
	C513.406433,260.865631 520.432922,273.363678 522.172485,288.065552 
	C522.380432,289.822845 523.149536,291.513763 523.191528,293.635223 
	C518.394897,293.467529 519.422913,289.442352 518.657532,287.007233 
	C513.385742,270.234039 511.853577,269.241852 494.118195,268.908997 
	C481.928040,268.680206 473.166351,274.439331 465.687988,283.170807 
	C442.400665,272.958221 418.112671,267.487946 392.614685,267.791260 
	C373.260223,268.021515 354.427673,271.164124 337.241943,280.338837 
	C330.193573,284.101685 324.254791,289.942932 317.461365,294.576294 
	C316.850128,287.497833 315.730042,285.668732 309.466705,285.187134 
	C297.011017,284.229309 284.682098,285.728912 272.761780,289.372772 
	C268.904144,290.552002 264.465790,292.640930 262.232025,295.720276 
	C257.981506,301.579803 258.424744,308.852509 259.429504,315.877197 
	C259.630829,317.284729 259.950623,319.144226 259.260895,320.121063 
	C257.305603,322.890350 257.177399,325.456390 258.583221,328.426147 
	C258.879059,329.051117 258.184326,330.144958 257.946014,331.022766 
	C251.912674,318.413361 250.656967,305.279449 254.186279,291.268738 
	C255.799652,288.917572 256.853882,286.979279 258.067322,284.748169 
	C258.536377,284.863403 259.529175,285.107330 260.206757,285.273773 
	C261.534180,282.229736 262.806610,279.549042 263.888214,276.793457 
	C271.341461,257.805084 283.638214,243.087479 301.019531,232.135071 
	C315.975128,222.711151 331.980957,218.076874 349.458344,218.015701 
	C371.446075,217.938751 393.446808,218.455978 415.418610,217.859207 
	C434.917450,217.329605 453.839508,219.353912 472.208862,226.082245 
	C473.210602,226.449188 474.718750,225.433487 475.991180,225.061371 
z"/><path fill="#4297F8" opacity="1.000000" stroke="none" 
	d="
M494.150146,442.327820 
	C476.731110,457.845093 456.063965,465.372803 433.028381,465.779663 
	C405.052277,466.273743 377.059937,466.029907 349.076752,465.821014 
	C341.619110,465.765350 334.179413,464.461212 326.713623,464.097229 
	C312.327240,463.395874 298.878296,467.193695 286.108002,473.489471 
	C274.381470,479.270691 262.797424,485.340851 250.420166,491.181030 
	C247.196289,490.937744 247.309555,490.116913 248.272964,487.967957 
	C250.188385,483.695435 251.762344,479.223236 252.992447,474.701630 
	C254.580475,468.864441 255.693451,462.898010 257.386475,457.038391 
	C260.363678,457.059784 262.978241,456.847168 265.565155,457.028503 
	C291.714111,458.861420 316.874451,452.407471 342.044708,447.138062 
	C352.727753,444.901581 362.708588,439.238220 372.949615,434.990265 
	C379.024933,432.470276 384.985443,429.673523 391.301971,427.157349 
	C394.458313,429.393097 397.054932,432.120636 400.232880,433.372803 
	C403.508606,434.663483 407.366852,435.025635 410.941589,434.909912 
	C424.657410,434.465820 438.355835,433.376434 452.072266,433.100250 
	C461.490875,432.910645 470.947113,434.175537 480.351532,433.831909 
	C487.326050,433.577057 492.986877,433.864136 494.150146,442.327820 
z"/><path fill="#F4F4F4" opacity="1.000000" stroke="none" 
	d="
M1527.246338,348.027527 
	C1527.520752,352.087982 1527.795166,356.148438 1528.105957,360.747986 
	C1505.663208,360.747986 1484.002563,360.747986 1462.353394,360.747986 
	C1462.171631,373.468506 1474.078613,381.994324 1490.753906,381.378754 
	C1491.911377,381.340210 1492.468384,381.086517 1493.025513,380.832855 
	C1498.270874,377.825104 1503.516235,374.817383 1509.497925,371.387451 
	C1513.701172,374.524475 1518.852051,378.368591 1524.146240,382.319733 
	C1516.708130,392.071472 1507.291138,397.791077 1494.868042,399.550781 
	C1492.475708,399.644196 1490.810791,399.979980 1489.145752,400.315796 
	C1486.025635,400.359985 1482.905396,400.404175 1479.124023,399.975159 
	C1477.383057,399.451019 1476.303467,399.400085 1475.223755,399.349121 
	C1469.599609,397.125824 1463.975586,394.902496 1458.127563,392.050171 
	C1456.985229,390.931335 1456.066895,390.441528 1455.148438,389.951691 
	C1454.286865,389.262848 1453.425171,388.574066 1452.752441,387.413635 
	C1452.926270,385.849213 1452.911255,384.756348 1452.896240,383.663513 
	C1451.849854,383.967865 1450.803345,384.272217 1449.756958,384.576569 
	C1435.091309,367.837769 1435.546265,339.561615 1450.759155,322.292023 
	C1465.294312,305.791626 1491.047852,302.449341 1509.253662,314.860748 
	C1517.355713,320.384125 1522.803711,327.953888 1525.265991,338.178558 
	C1525.498169,339.575745 1525.815918,340.299927 1526.133545,341.024139 
	C1526.420288,342.087372 1526.706909,343.150604 1526.718384,344.804382 
	C1526.710815,346.272491 1526.978638,347.150024 1527.246338,348.027527 
M1499.450195,344.266541 
	C1501.381592,344.266541 1503.312988,344.266541 1505.298950,344.266541 
	C1504.109497,333.653961 1495.774292,326.783325 1484.702759,326.777344 
	C1473.266602,326.771210 1464.076172,334.065094 1463.066650,344.280304 
	C1474.887207,344.280304 1486.676514,344.280304 1499.450195,344.266541 
M1482.653442,398.076538 
	C1482.560425,398.280396 1482.439941,398.478607 1482.396240,398.692566 
	C1482.386719,398.739197 1482.651855,398.907928 1482.791382,398.908966 
	C1484.776367,398.923523 1486.761597,398.918915 1488.746704,398.918915 
	C1488.737915,398.615967 1488.729004,398.313019 1488.720093,398.010071 
	C1486.927368,398.010071 1485.134766,398.010071 1482.653442,398.076538 
z"/><path fill="#33C8F4" opacity="1.000000" stroke="none" 
	d="
M410.945496,350.178650 
	C395.607666,343.884735 379.113678,340.133606 365.531189,329.984253 
	C361.330383,326.845245 357.646423,323.014557 352.312134,318.233429 
	C360.460205,314.328918 366.960693,310.287476 374.028259,307.992157 
	C400.587219,299.366669 427.250061,300.625519 453.464996,309.479675 
	C477.212799,317.500580 497.398499,330.879425 511.732635,351.946442 
	C517.109192,359.848419 520.983398,368.479980 521.623474,378.496094 
	C520.607361,378.108185 519.838501,377.457672 519.414307,376.630493 
	C516.238220,370.438049 513.130310,364.210693 509.963348,357.650940 
	C509.371338,354.186371 509.529419,351.043793 506.303497,348.734009 
	C499.858124,344.118988 493.817169,338.942627 487.507477,334.131470 
	C486.263336,333.182892 483.968750,331.870605 483.164520,332.364410 
	C477.216919,336.016174 470.891541,333.580994 464.780121,334.104187 
	C461.082397,334.420746 457.515503,336.158386 453.814026,336.561981 
	C446.962189,337.309113 440.045593,337.439423 433.172943,338.025635 
	C426.583893,338.587677 419.997742,339.264038 413.445160,340.148499 
	C407.962067,340.888580 407.265656,342.619019 410.112732,346.915436 
	C410.698334,347.799072 410.683563,349.080566 410.945496,350.178650 
z"/><path fill="#F6F6F6" opacity="1.000000" stroke="none" 
	d="
M715.951538,390.020752 
	C715.315002,390.508820 714.134705,390.985168 714.123901,391.486755 
	C713.976074,398.348846 713.989868,405.214417 713.479065,412.396759 
	C712.680542,412.169769 712.134827,411.644409 712.087891,411.077728 
	C711.341187,402.066315 710.677429,393.048035 709.932861,384.036438 
	C709.853821,383.080139 709.463745,382.123474 709.086609,381.221954 
	C705.829712,373.436493 698.671509,373.718445 692.001343,372.999939 
	C692.001343,352.049805 692.001343,331.099670 692.001343,309.649353 
	C699.094604,309.649353 706.267578,309.649353 713.889160,309.649353 
	C713.889160,312.641968 713.889160,315.541168 713.889160,317.498566 
	C720.263611,314.350098 726.326782,309.781616 733.064758,308.316528 
	C755.045654,303.537170 775.741150,318.136688 780.952881,340.985199 
	C783.378052,351.617157 783.189880,362.109985 778.966919,372.516174 
	C777.202759,372.332581 775.826233,371.605743 774.731262,371.906006 
	C768.394226,373.643677 762.190979,374.058136 756.164795,370.674011 
	C761.463623,360.173615 761.584839,349.837921 756.761658,339.610718 
	C753.115967,331.880219 746.528748,327.916656 738.104248,327.372650 
	C729.410706,326.811218 722.504028,330.353058 717.807678,337.697510 
	C707.678772,353.537842 714.554077,374.336304 731.944580,381.300842 
	C725.960083,387.810120 724.643921,388.501465 717.293640,389.423279 
	C716.828613,389.481567 716.398132,389.815216 715.951538,390.020752 
z"/><path fill="#F4F4F4" opacity="1.000000" stroke="none" 
	d="
M1007.763489,357.922821 
	C1007.803223,370.399414 1007.917358,382.877045 1007.750244,395.350861 
	C1007.735962,396.419586 1005.853149,397.463257 1004.518799,398.129395 
	C1004.276917,397.181396 1004.354492,396.622559 1004.432068,396.063721 
	C1003.630188,396.804382 1002.828308,397.545074 1002.026489,398.285767 
	C1000.613525,398.380096 999.200562,398.474365 997.309814,398.033508 
	C993.699097,395.438354 990.640320,394.254791 988.019775,398.244812 
	C983.894348,398.978699 985.317932,395.725342 985.309631,394.065308 
	C985.197632,371.676758 985.220947,349.287537 985.777710,326.445129 
	C993.259399,325.578308 1000.927795,328.263306 1006.232422,321.141296 
	C1006.427917,320.878815 1007.182678,321.032928 1007.676819,320.992889 
	C1007.676819,327.889709 1007.676819,334.786499 1007.676819,341.683319 
	C1008.049927,341.788818 1008.423035,341.894348 1008.796143,341.999847 
	C1015.728394,333.871368 1023.167969,326.111542 1029.428955,317.495270 
	C1034.249878,310.860779 1039.649414,307.932465 1047.784668,308.951874 
	C1052.802612,309.580688 1057.963745,309.068329 1064.367310,309.068329 
	C1052.723877,322.564270 1041.927124,335.078888 1030.597534,347.829895 
	C1030.140137,348.719818 1030.215576,349.373352 1030.290894,350.026917 
	C1041.650879,365.053802 1053.010986,380.080688 1063.989990,395.495911 
	C1055.393066,395.927673 1047.177124,395.971130 1038.961182,396.014587 
	C1038.609253,395.689026 1038.257446,395.363495 1037.873413,394.424316 
	C1037.196533,393.208832 1036.551880,392.606995 1035.907104,392.005188 
	C1035.569824,391.677429 1035.232422,391.349701 1034.899048,390.362061 
	C1034.791260,385.313293 1033.160156,382.234802 1028.248047,381.986115 
	C1024.508545,377.342285 1020.769104,372.698456 1016.943115,367.386047 
	C1016.222229,366.150757 1015.587830,365.584076 1014.953430,365.017365 
	C1014.298279,364.326752 1013.643188,363.636169 1012.924927,362.308411 
	C1012.220947,361.115173 1011.580078,360.559143 1010.939270,360.003113 
	C1010.381775,359.399902 1009.824280,358.796722 1009.095337,357.652618 
	C1008.413940,356.954956 1007.903870,356.798187 1007.393799,356.641418 
	C1007.517090,357.068542 1007.640320,357.495667 1007.763489,357.922821 
z"/><path fill="#F6F6F6" opacity="1.000000" stroke="none" 
	d="
M684.090454,359.019806 
	C684.222778,361.728577 684.355103,364.437347 684.074341,367.685974 
	C683.358093,368.798615 683.107849,369.831757 682.743774,369.873535 
	C678.702209,370.337524 674.642639,370.643372 670.588745,371.001190 
	C666.076965,371.399445 663.598816,369.658600 663.996094,364.813324 
	C664.177490,362.600922 663.809326,360.773376 660.925720,361.003723 
	C658.599731,355.392670 654.185425,352.038483 648.726257,349.910889 
	C641.283203,347.009979 633.676575,344.496826 626.355164,341.321533 
	C605.653381,332.343140 597.429199,313.174957 606.110535,294.002472 
	C612.095886,280.784058 623.209106,274.328918 637.120178,272.610565 
	C653.806702,270.549408 668.753845,274.486572 681.284851,286.785431 
	C676.510010,292.478424 671.965820,297.896484 667.493103,303.229279 
	C663.768311,300.545685 660.624939,297.750824 657.023987,295.801056 
	C650.297485,292.158875 643.086731,291.453766 635.759583,294.027191 
	C630.184387,295.985291 627.014465,299.993713 626.503296,305.890381 
	C626.011292,311.565918 628.132568,316.300751 633.234497,318.808563 
	C639.485840,321.881378 646.008240,324.458160 652.557190,326.857117 
	C662.004150,330.317657 671.223206,334.296631 677.414734,342.511902 
	C680.414673,346.492432 681.857300,351.646667 683.763062,356.778625 
	C683.710876,357.865112 683.900696,358.442444 684.090454,359.019806 
z"/><path fill="#F6F6F6" opacity="1.000000" stroke="none" 
	d="
M1127.742554,361.975159 
	C1125.897217,356.357025 1121.869629,352.800079 1116.597656,350.625214 
	C1110.296509,348.025726 1103.860474,345.753845 1097.556152,343.161652 
	C1094.028442,341.711090 1090.503662,340.145325 1087.229126,338.206390 
	C1075.098755,331.023529 1069.117432,320.309845 1070.159912,306.191193 
	C1071.206421,292.017090 1078.457397,281.865692 1091.462158,276.070007 
	C1110.195679,267.721283 1135.029541,272.520233 1147.837036,286.955750 
	C1143.308716,292.367981 1138.759277,297.805542 1134.029663,303.458405 
	C1131.576904,301.463409 1129.512695,299.581329 1127.249390,297.980530 
	C1119.700928,292.641632 1111.444214,291.120026 1102.616455,294.099426 
	C1097.248047,295.911285 1094.071655,299.835205 1093.499756,305.510101 
	C1092.933594,311.130188 1094.891724,316.042786 1099.972046,318.556519 
	C1107.254395,322.159760 1114.890991,325.056213 1122.417236,328.155365 
	C1132.639893,332.364838 1142.005127,337.628784 1147.530273,347.814789 
	C1147.845581,348.395874 1148.063477,349.029816 1148.149902,350.379608 
	C1147.853516,352.863312 1147.646484,354.605743 1147.630371,356.349945 
	C1147.583740,361.403168 1147.613892,366.457062 1147.613892,371.001556 
	C1140.443604,371.001556 1133.696289,371.001556 1126.948975,371.001556 
	C1127.080688,370.214844 1127.212280,369.428101 1127.864136,368.161621 
	C1128.170410,365.779602 1127.956543,363.877380 1127.742554,361.975159 
z"/><path fill="#0D2C34" opacity="1.000000" stroke="none" 
	d="
M1857.998779,421.013947 
	C1791.347534,421.013916 1725.195801,421.033142 1659.044189,421.005798 
	C1626.197510,420.992249 1597.119019,398.344574 1589.728760,366.274689 
	C1584.554932,343.822540 1590.027710,323.279541 1604.228516,305.406433 
	C1619.816406,285.787689 1640.697144,276.954529 1665.656494,276.991821 
	C1731.807983,277.090637 1797.959839,276.980988 1864.111450,277.048981 
	C1900.424561,277.086304 1929.878784,301.192444 1937.543335,335.698792 
	C1943.491089,362.476288 1933.320557,390.199524 1910.268188,406.931488 
	C1894.709229,418.224487 1877.322021,422.083069 1857.998779,421.013947 
M1834.500000,416.996338 
	C1848.619995,416.668640 1862.834229,417.252472 1876.838379,415.804535 
	C1899.161743,413.496582 1916.301758,401.646881 1926.729126,382.024475 
	C1938.531250,359.815186 1938.332764,336.753235 1924.874268,315.165375 
	C1911.740723,294.098785 1892.595581,282.048920 1867.097046,282.021729 
	C1797.799561,281.947845 1728.501953,281.994812 1659.204468,282.009308 
	C1657.046509,282.009766 1654.860596,281.988953 1652.735107,282.301453 
	C1635.493774,284.836212 1621.070557,292.493439 1609.643066,305.806244 
	C1596.044800,321.648193 1590.252197,339.715546 1592.872437,360.554443 
	C1596.896973,392.559814 1627.086914,416.847321 1659.090088,416.945343 
	C1717.226318,417.123413 1775.363281,416.996155 1834.500000,416.996338 
z"/><path fill="#F6F6F6" opacity="1.000000" stroke="none" 
	d="
M788.862793,356.977264 
	C788.732971,355.588440 788.603210,354.199585 788.878296,352.302856 
	C789.240356,350.879120 789.197449,349.963257 789.154602,349.047394 
	C789.689880,328.806610 805.784790,311.200317 826.664856,308.014771 
	C848.742310,304.646545 868.100098,316.033447 875.028503,336.538483 
	C875.872559,339.036438 876.340576,341.661499 876.755249,344.759949 
	C876.751099,345.868958 876.974487,346.445679 877.197876,347.022369 
	C877.434326,348.646515 877.809814,350.264984 877.876099,351.896027 
	C877.988892,354.673737 877.907166,357.459351 877.907166,360.907806 
	C875.695007,360.907806 873.938232,360.908081 872.181396,360.907745 
	C853.454102,360.904175 834.726624,360.858734 816.000061,360.977386 
	C814.522644,360.986694 811.574524,359.374725 811.572266,363.777527 
	C810.312439,364.617035 809.269897,364.828918 807.983398,365.090424 
	C809.444519,370.681732 805.406921,372.307037 801.419983,373.640137 
	C797.456482,374.965424 796.684998,371.356445 794.869324,369.121613 
	C793.955505,367.996765 791.890930,367.806824 790.346741,367.194122 
	C790.346741,367.194122 790.263672,367.025360 790.448608,366.636047 
	C790.347961,365.490295 790.062378,364.733887 789.776855,363.977448 
	C789.522461,362.907593 789.268005,361.837769 789.294678,360.184265 
	C789.338135,358.726166 789.100464,357.851715 788.862793,356.977264 
M826.626465,327.720581 
	C818.820740,330.410980 813.969543,335.761139 811.635132,344.087402 
	C826.335693,344.087402 840.539734,344.087402 855.335388,344.087402 
	C854.683533,341.830536 854.421692,340.017700 853.662781,338.444702 
	C849.122925,329.034485 840.335022,325.397156 826.626465,327.720581 
z"/><path fill="#F6F6F6" opacity="1.000000" stroke="none" 
	d="
M884.089417,357.996429 
	C883.944397,355.954773 883.799377,353.913086 884.035767,351.276001 
	C884.329651,349.802673 884.242126,348.924835 884.154602,348.046967 
	C885.669617,320.287598 912.257568,300.755615 937.521057,309.203430 
	C942.552551,310.885895 946.975830,314.387482 951.998230,317.230621 
	C952.104858,315.284637 952.250549,312.626221 952.419556,309.542603 
	C959.579224,309.542603 966.628113,309.542603 974.413452,309.542603 
	C974.413452,337.079193 974.413452,364.591583 973.878601,392.464722 
	C972.895813,389.692963 972.186218,386.571106 972.058716,383.425629 
	C971.844299,378.137634 972.000000,372.834625 972.000000,367.537933 
	C971.545532,367.383942 971.091125,367.229919 970.636658,367.075928 
	C969.246216,372.010010 966.323303,372.400238 962.060120,371.340454 
	C957.955627,370.320068 953.559204,370.473724 949.377258,369.716614 
	C953.651123,361.350739 953.339478,352.993256 951.337097,344.595306 
	C948.854736,334.184662 940.208313,327.360168 929.762024,327.268768 
	C919.280396,327.177063 908.909485,334.280426 906.705322,344.078247 
	C904.636475,353.274200 905.378235,362.460632 909.834534,370.943665 
	C905.138489,370.815521 902.692871,368.559143 900.875793,364.673615 
	C899.832214,362.442291 897.566101,360.017181 895.326294,359.287231 
	C891.813538,358.142334 887.857666,358.357330 884.089417,357.996429 
z"/><path fill="#F6F6F6" opacity="1.000000" stroke="none" 
	d="
M1254.753174,357.975708 
	C1254.641724,355.927795 1254.530396,353.879913 1254.861938,351.295410 
	C1255.296387,349.533661 1255.287964,348.308441 1255.279663,347.083252 
	C1257.594604,320.357666 1283.224487,301.365570 1307.404175,308.999786 
	C1312.542236,310.622040 1316.878906,314.782898 1321.858765,318.212158 
	C1322.432129,318.620544 1322.731445,318.590942 1323.030762,318.561340 
	C1323.030762,315.735321 1323.030762,312.909302 1323.030762,309.600159 
	C1330.337646,309.600159 1337.352783,309.600159 1344.655273,309.600159 
	C1344.655273,339.121033 1344.655273,368.514313 1344.655273,399.180664 
	C1337.483887,398.781525 1330.543213,398.395264 1324.057861,397.528687 
	C1328.989990,397.030609 1333.480103,396.792664 1337.939453,397.061829 
	C1341.780640,397.293732 1343.193726,396.128967 1343.083862,392.071747 
	C1342.810059,381.964569 1343.009033,371.844971 1342.975342,361.730499 
	C1342.970703,360.357880 1342.720581,358.986053 1342.584229,357.613861 
	C1342.179077,357.554108 1341.773926,357.494354 1341.368774,357.434601 
	C1340.845459,359.013855 1340.257690,360.575073 1339.810181,362.175537 
	C1337.885254,369.059235 1335.527710,370.602905 1328.285034,370.011658 
	C1325.560669,369.789276 1322.801880,369.990143 1320.111084,369.628723 
	C1323.947021,361.368469 1323.759399,353.066345 1322.027588,344.854370 
	C1319.995972,335.221558 1312.546753,328.639160 1303.182739,327.309998 
	C1294.224243,326.038361 1284.989746,330.555328 1280.513916,338.731171 
	C1276.889893,345.351044 1276.099854,352.566711 1276.572510,360.041534 
	C1274.765015,361.015747 1273.297607,361.945526 1271.725098,362.941833 
	C1266.193359,357.649017 1260.722534,361.526062 1255.246582,362.667664 
	C1255.174561,362.455261 1255.102539,362.242889 1255.287354,361.419495 
	C1255.280396,359.864166 1255.016846,358.919922 1254.753174,357.975708 
z"/><path fill="#F6F6F6" opacity="1.000000" stroke="none" 
	d="
M1247.189941,347.765869 
	C1247.476807,352.928864 1247.763550,358.091858 1247.553223,363.471893 
	C1245.691650,359.485199 1243.269409,358.445557 1239.080078,360.335724 
	C1236.828125,361.351776 1234.075928,361.391846 1231.528198,361.573730 
	C1229.737549,361.701538 1227.911133,361.325989 1226.079956,360.720032 
	C1226.274048,357.870972 1226.488892,355.477081 1227.058594,353.010132 
	C1227.899658,351.738129 1228.385986,350.539154 1228.872437,349.340210 
	C1228.015503,349.220459 1227.158691,349.100708 1226.150879,348.617676 
	C1225.967285,348.091064 1225.938721,347.926758 1225.900879,347.764679 
	C1222.770142,334.363281 1214.801025,327.224091 1203.235474,327.241669 
	C1192.927612,327.257324 1183.888062,334.200745 1180.010864,348.495148 
	C1178.318970,354.732361 1180.856567,359.673584 1181.229004,365.568115 
	C1179.090454,370.948151 1175.103882,371.191162 1170.453003,371.146149 
	C1166.508423,371.107941 1162.552124,372.308929 1158.600952,372.961609 
	C1158.600952,352.155823 1158.600952,331.350037 1158.600952,310.236603 
	C1165.518677,310.236603 1172.566162,310.236603 1180.254883,310.236603 
	C1180.254883,313.012726 1180.254883,315.863129 1180.254883,319.665985 
	C1193.670410,305.793793 1208.650269,303.798035 1224.400879,311.414001 
	C1238.255615,318.113281 1246.017700,329.825928 1246.976807,346.016968 
	C1246.985229,346.932037 1247.087524,347.348969 1247.189941,347.765869 
z"/><path fill="#40A3F5" opacity="1.000000" stroke="none" 
	d="
M494.468201,442.202301 
	C492.986877,433.864136 487.326050,433.577057 480.351532,433.831909 
	C470.947113,434.175537 461.490875,432.910645 452.072266,433.100250 
	C438.355835,433.376434 424.657410,434.465820 410.941589,434.909912 
	C407.366852,435.025635 403.508606,434.663483 400.232880,433.372803 
	C397.054932,432.120636 394.458313,429.393097 391.343872,426.803162 
	C393.917236,421.735016 396.753082,417.177277 399.841583,412.213440 
	C395.325104,409.685669 391.846466,413.376221 387.582245,413.997070 
	C385.712189,414.075104 384.123138,413.793732 382.841278,414.296143 
	C379.434021,415.631470 378.460541,413.822693 377.990021,411.038727 
	C388.090485,408.073639 398.190979,405.108582 408.925354,402.374817 
	C412.281982,402.907196 415.507019,404.262146 417.608643,403.260315 
	C420.695160,401.788940 422.399597,402.901611 424.831543,404.143677 
	C428.574615,406.055328 432.481445,408.297272 436.525146,408.828613 
	C444.045044,409.816711 451.711090,409.833832 459.321106,409.954742 
	C466.958099,410.076111 474.602478,409.695679 482.240845,409.781281 
	C491.667175,409.886871 501.090698,410.246521 509.544739,410.470673 
	C510.179382,415.701813 510.623566,419.363342 511.067780,423.024872 
	C505.640594,429.375519 500.213409,435.726166 494.468201,442.202301 
z"/><path fill="#ECEBEB" opacity="1.000000" stroke="none" 
	d="
M1226.100708,361.175232 
	C1227.911133,361.325989 1229.737549,361.701538 1231.528198,361.573730 
	C1234.075928,361.391846 1236.828125,361.351776 1239.080078,360.335724 
	C1243.269409,358.445557 1245.691650,359.485199 1247.428101,363.810181 
	C1243.741577,391.750732 1217.390503,408.152924 1192.913696,397.849243 
	C1188.752319,396.097473 1185.175537,392.956787 1180.955566,390.215424 
	C1180.955566,405.623444 1180.955566,421.142212 1180.955566,437.043396 
	C1173.167114,437.043396 1165.956665,437.043396 1158.329956,437.043396 
	C1158.329956,427.243805 1158.329956,417.624176 1158.897827,407.461792 
	C1159.910645,406.477325 1160.736816,406.041656 1160.744019,405.592834 
	C1160.875488,397.386353 1160.961792,389.177643 1160.861572,380.971771 
	C1160.853516,380.308411 1159.419312,379.662445 1158.647827,379.008423 
	C1158.535522,377.269775 1158.423096,375.531158 1158.455811,373.377045 
	C1162.552124,372.308929 1166.508423,371.107941 1170.453003,371.146149 
	C1175.103882,371.191162 1179.090454,370.948151 1181.476074,365.834839 
	C1187.508057,378.146576 1198.437012,383.666107 1210.420776,380.001587 
	C1219.710449,377.160858 1223.778564,369.870941 1226.100708,361.175232 
z"/><path fill="#F6F6F6" opacity="1.000000" stroke="none" 
	d="
M1356.935913,374.003296 
	C1355.629639,369.911255 1354.323364,365.819183 1353.263306,361.212830 
	C1353.304077,360.125580 1353.098877,359.552582 1352.893677,358.979584 
	C1352.752686,356.269867 1352.611694,353.560181 1352.900635,350.317627 
	C1353.287720,348.876526 1353.244995,347.968262 1353.202148,347.059998 
	C1355.006958,329.896088 1364.648804,318.340698 1379.853271,311.463715 
	C1400.121582,302.296356 1423.003418,308.198761 1437.386963,326.088318 
	C1432.104492,330.450348 1426.809204,334.822937 1422.204956,338.624939 
	C1417.044922,335.129852 1412.806519,331.132812 1407.775024,329.064178 
	C1393.220703,323.080017 1379.645874,332.529083 1375.218140,345.401306 
	C1375.024780,345.963409 1375.335693,346.698914 1375.012207,347.791565 
	C1374.657349,348.794891 1374.701904,349.360321 1374.746338,349.925751 
	C1374.795654,352.342224 1374.844971,354.758698 1374.649170,357.790466 
	C1374.610107,358.939667 1374.816284,359.473541 1375.022461,360.007416 
	C1375.188354,360.543335 1375.354248,361.079254 1375.367676,362.220520 
	C1375.564209,363.558258 1375.912964,364.290619 1376.261719,365.022980 
	C1379.365845,368.889343 1382.469971,372.755707 1385.779541,377.273621 
	C1384.344238,380.204559 1382.703491,382.483978 1381.062744,384.763428 
	C1380.753174,384.594177 1380.443726,384.424957 1380.134155,384.255707 
	C1380.310547,385.975922 1380.486938,387.696136 1380.664917,389.431519 
	C1371.926514,389.893280 1369.417358,386.666382 1371.399048,378.565796 
	C1371.622314,377.653076 1369.876709,375.386139 1368.775391,375.179382 
	C1364.892212,374.450378 1360.891846,374.345123 1356.935913,374.003296 
z"/><path fill="#3DB0F4" opacity="1.000000" stroke="none" 
	d="
M511.343079,422.829163 
	C510.623566,419.363342 510.179382,415.701813 509.544739,410.470673 
	C501.090698,410.246521 491.667175,409.886871 482.240845,409.781281 
	C474.602478,409.695679 466.958099,410.076111 459.321106,409.954742 
	C451.711090,409.833832 444.045044,409.816711 436.525146,408.828613 
	C432.481445,408.297272 428.574615,406.055328 424.831543,404.143677 
	C422.399597,402.901611 420.695160,401.788940 417.608643,403.260315 
	C415.507019,404.262146 412.281982,402.907196 409.298157,402.350464 
	C419.307495,397.475739 428.727875,391.703308 436.220276,382.301025 
	C438.848145,382.786285 440.842804,383.932831 442.908142,384.078705 
	C453.928314,384.857086 464.959503,385.607971 475.999725,385.934998 
	C486.271820,386.239319 496.561829,386.114044 506.840393,385.952545 
	C512.081421,385.870178 515.762268,387.521698 517.554871,392.810059 
	C517.992126,394.099915 519.734680,394.947327 520.877075,395.998169 
	C520.919189,396.447754 520.961365,396.897369 520.746094,397.840759 
	C520.355713,398.644440 520.222839,398.954407 520.089966,399.264343 
	C520.390442,408.186676 515.638062,415.277283 511.343079,422.829163 
z"/><path fill="#36C2F4" opacity="1.000000" stroke="none" 
	d="
M411.173401,350.431030 
	C410.683563,349.080566 410.698334,347.799072 410.112732,346.915436 
	C407.265656,342.619019 407.962067,340.888580 413.445160,340.148499 
	C419.997742,339.264038 426.583893,338.587677 433.172943,338.025635 
	C440.045593,337.439423 446.962189,337.309113 453.814026,336.561981 
	C457.515503,336.158386 461.082397,334.420746 464.780121,334.104187 
	C470.891541,333.580994 477.216919,336.016174 483.164520,332.364410 
	C483.968750,331.870605 486.263336,333.182892 487.507477,334.131470 
	C493.817169,338.942627 499.858124,344.118988 506.303497,348.734009 
	C509.529419,351.043793 509.371338,354.186371 509.593201,357.702881 
	C500.473602,363.110565 490.511597,362.620239 481.167633,362.507294 
	C467.179352,362.338257 453.210083,360.074860 439.249268,358.550720 
	C436.076721,358.204346 434.952820,359.451996 435.001038,362.369354 
	C435.037415,364.570282 435.039154,366.771790 435.056335,368.973022 
	C429.482971,359.886658 420.700073,354.951447 411.173401,350.431030 
z"/><path fill="#03C0C2" opacity="1.000000" stroke="none" 
	d="
M257.977997,331.382202 
	C258.184326,330.144958 258.879059,329.051117 258.583221,328.426147 
	C257.177399,325.456390 257.305603,322.890350 259.260895,320.121063 
	C259.950623,319.144226 259.630829,317.284729 259.429504,315.877197 
	C258.424744,308.852509 257.981506,301.579803 262.232025,295.720276 
	C264.465790,292.640930 268.904144,290.552002 272.761780,289.372772 
	C284.682098,285.728912 297.011017,284.229309 309.466705,285.187134 
	C315.730042,285.668732 316.850128,287.497833 317.182251,294.752930 
	C317.252991,295.191956 317.227509,295.158203 316.867554,295.163696 
	C316.023468,296.142151 315.539307,297.115143 315.055145,298.088135 
	C315.055145,298.088135 315.013000,298.016296 314.701050,298.074768 
	C312.187012,300.697540 309.138245,302.949799 311.102539,307.049835 
	C310.407257,309.445374 309.711945,311.840912 308.586853,314.628296 
	C306.177307,315.836914 304.149475,316.554901 302.227417,317.490295 
	C297.785431,319.651978 293.472992,322.095276 288.962860,324.097351 
	C283.687561,326.439087 278.208588,328.319489 272.912659,330.618195 
	C269.281464,332.194397 268.129028,336.337708 270.224152,339.727417 
	C271.617615,341.981873 273.348694,344.029572 274.712524,346.299683 
	C275.511261,347.629181 275.885681,349.213623 276.450989,350.683380 
	C274.939484,351.150391 273.428009,351.617432 271.916504,352.084473 
	C271.916504,352.084473 271.973907,351.994781 271.871063,351.815186 
	C271.592407,351.347961 271.350525,351.135559 271.042572,350.998383 
	C266.698395,344.579468 262.354187,338.160522 257.977997,331.382202 
z"/><path fill="#EFEFEF" opacity="1.000000" stroke="none" 
	d="
M1320.058716,369.998077 
	C1322.801880,369.990143 1325.560669,369.789276 1328.285034,370.011658 
	C1335.527710,370.602905 1337.885254,369.059235 1339.810181,362.175537 
	C1340.257690,360.575073 1340.845459,359.013855 1341.368774,357.434601 
	C1341.773926,357.494354 1342.179077,357.554108 1342.584229,357.613861 
	C1342.720581,358.986053 1342.970703,360.357880 1342.975342,361.730499 
	C1343.009033,371.844971 1342.810059,381.964569 1343.083862,392.071747 
	C1343.193726,396.128967 1341.780640,397.293732 1337.939453,397.061829 
	C1333.480103,396.792664 1328.989990,397.030609 1324.012939,397.077606 
	C1323.313965,394.687836 1323.115234,392.268890 1322.837036,388.881927 
	C1316.328125,396.449097 1308.564453,400.038055 1299.429688,400.595764 
	C1277.391235,401.941315 1259.738403,387.023529 1255.164795,362.911621 
	C1260.722534,361.526062 1266.193359,357.649017 1271.725098,362.941833 
	C1273.297607,361.945526 1274.765015,361.015747 1276.721924,360.387024 
	C1279.462891,370.685730 1284.934326,378.026459 1295.231445,380.333282 
	C1305.671509,382.672150 1314.040527,378.870209 1320.058716,369.998077 
z"/><path fill="#3ABBF4" opacity="1.000000" stroke="none" 
	d="
M435.146301,369.378296 
	C435.039154,366.771790 435.037415,364.570282 435.001038,362.369354 
	C434.952820,359.451996 436.076721,358.204346 439.249268,358.550720 
	C453.210083,360.074860 467.179352,362.338257 481.167633,362.507294 
	C490.511597,362.620239 500.473602,363.110565 509.630920,358.046173 
	C513.130310,364.210693 516.238220,370.438049 519.414307,376.630493 
	C519.838501,377.457672 520.607361,378.108185 521.566528,378.915466 
	C521.638123,384.405396 521.359802,389.820343 520.979248,395.616730 
	C519.734680,394.947327 517.992126,394.099915 517.554871,392.810059 
	C515.762268,387.521698 512.081421,385.870178 506.840393,385.952545 
	C496.561829,386.114044 486.271820,386.239319 475.999725,385.934998 
	C464.959503,385.607971 453.928314,384.857086 442.908142,384.078705 
	C440.842804,383.932831 438.848145,382.786285 436.451599,382.049011 
	C435.800323,377.925537 435.518311,373.854584 435.146301,369.378296 
z"/><path fill="#EFEFEF" opacity="1.000000" stroke="none" 
	d="
M884.022095,358.416748 
	C887.857666,358.357330 891.813538,358.142334 895.326294,359.287231 
	C897.566101,360.017181 899.832214,362.442291 900.875793,364.673615 
	C902.692871,368.559143 905.138489,370.815521 910.119507,371.103271 
	C922.326782,384.842163 938.286621,384.373199 949.291077,370.111511 
	C953.559204,370.473724 957.955627,370.320068 962.060120,371.340454 
	C966.323303,372.400238 969.246216,372.010010 970.636658,367.075928 
	C971.091125,367.229919 971.545532,367.383942 972.000000,367.537933 
	C972.000000,372.834625 971.844299,378.137634 972.058716,383.425629 
	C972.186218,386.571106 972.895813,389.692963 973.745605,392.917786 
	C974.265686,394.617096 974.383972,396.224091 974.531006,398.221252 
	C967.053284,398.221252 959.993835,398.221252 952.618103,398.221252 
	C952.392822,395.325073 952.182617,392.622162 951.923523,389.291595 
	C938.646851,402.333069 923.691650,403.886169 908.034180,396.465851 
	C892.482971,389.095947 885.435303,375.574036 884.022095,358.416748 
z"/><path fill="#EFEFEF" opacity="1.000000" stroke="none" 
	d="
M1126.685791,371.211731 
	C1133.696289,371.001556 1140.443604,371.001556 1147.613892,371.001556 
	C1147.613892,366.457062 1147.583740,361.403168 1147.630371,356.349945 
	C1147.646484,354.605743 1147.853516,352.863312 1148.155518,350.717957 
	C1155.958496,365.620422 1149.455688,385.456879 1133.759766,394.785522 
	C1113.838135,406.625641 1080.563599,400.418579 1065.667603,381.788483 
	C1070.602173,376.556152 1075.581177,371.276886 1081.791016,364.692444 
	C1082.916016,366.489319 1083.614258,368.292084 1084.877075,369.509277 
	C1092.703491,377.053497 1101.956421,380.864075 1112.971680,379.655090 
	C1118.735107,379.022552 1123.499146,376.714722 1126.685791,371.211731 
z"/><path fill="#EFEFEF" opacity="1.000000" stroke="none" 
	d="
M660.904846,361.439209 
	C663.809326,360.773376 664.177490,362.600922 663.996094,364.813324 
	C663.598816,369.658600 666.076965,371.399445 670.588745,371.001190 
	C674.642639,370.643372 678.702209,370.337524 682.743774,369.873535 
	C683.107849,369.831757 683.358093,368.798615 683.889282,368.102600 
	C683.277527,381.480774 675.921021,390.618347 664.197021,396.209229 
	C643.251038,406.197876 614.766968,399.985474 598.703369,381.965576 
	C603.659607,376.604980 608.663330,371.192993 613.411194,366.057739 
	C618.084229,369.565643 621.998535,373.885132 626.860046,375.801788 
	C632.859619,378.167023 639.673828,379.661804 646.087891,379.509094 
	C656.642639,379.257904 661.681641,372.457703 660.904846,361.439209 
z"/><path fill="#EFEFEF" opacity="1.000000" stroke="none" 
	d="
M790.321228,367.508850 
	C791.890930,367.806824 793.955505,367.996765 794.869324,369.121613 
	C796.684998,371.356445 797.456482,374.965424 801.419983,373.640137 
	C805.406921,372.307037 809.444519,370.681732 807.983398,365.090424 
	C809.269897,364.828918 810.312439,364.617035 811.558594,364.242798 
	C815.790100,380.864075 841.217102,389.671539 858.447571,370.730133 
	C863.593506,374.546875 868.765869,378.383240 874.130432,382.362152 
	C861.464600,397.867432 845.203308,403.061340 826.293091,399.747162 
	C808.005493,396.542145 795.766663,385.826294 790.321228,367.508850 
z"/><path fill="#348EE5" opacity="1.000000" stroke="none" 
	d="
M377.747498,410.966309 
	C378.460541,413.822693 379.434021,415.631470 382.841278,414.296143 
	C384.123138,413.793732 385.712189,414.075104 387.830994,414.217407 
	C388.185730,415.599426 388.250580,417.229645 387.491333,417.847961 
	C383.777618,420.872375 380.214661,424.523102 375.915436,426.300354 
	C365.232147,430.716766 354.356110,434.899963 343.212372,437.891266 
	C335.179749,440.047455 326.517181,439.725220 318.267120,441.229645 
	C298.978394,444.746979 279.629913,447.030365 259.990540,445.543365 
	C260.659668,441.058746 261.326202,437.029144 262.455627,433.000061 
	C268.356232,433.314453 274.033661,434.789429 279.187012,433.725586 
	C294.947083,430.472107 310.814667,431.344391 326.672974,430.889954 
	C332.541077,430.721741 338.396057,429.404419 344.211609,428.358551 
	C347.612549,427.746979 350.999847,426.851624 354.256897,425.698578 
	C358.754547,424.106384 363.961578,423.608673 367.566895,417.949493 
	C363.355835,416.847290 359.830688,415.916107 356.300537,415.004181 
	C354.466919,414.530548 352.624420,414.091064 350.785950,413.636169 
	C356.587555,413.148956 362.389191,412.661743 368.733917,412.590881 
	C371.925629,414.037323 374.743225,415.785004 376.115265,411.396240 
	C376.578491,411.228790 377.041748,411.061340 377.747498,410.966309 
z"/><path fill="#06B4BC" opacity="1.000000" stroke="none" 
	d="
M272.057617,352.389709 
	C273.428009,351.617432 274.939484,351.150391 276.450989,350.683380 
	C275.885681,349.213623 275.511261,347.629181 274.712524,346.299683 
	C273.348694,344.029572 271.617615,341.981873 270.224152,339.727417 
	C268.129028,336.337708 269.281464,332.194397 272.912659,330.618195 
	C278.208588,328.319489 283.687561,326.439087 288.962860,324.097351 
	C293.472992,322.095276 297.785431,319.651978 302.227417,317.490295 
	C304.149475,316.554901 306.177307,315.836914 308.525146,315.007812 
	C310.072083,318.763428 311.250977,322.531403 312.061523,326.673615 
	C305.361877,326.757629 305.153320,332.061432 305.233337,335.687531 
	C305.415009,343.921082 306.250305,352.233948 307.875793,360.301849 
	C308.674957,364.268372 311.823303,367.761658 314.580078,372.663025 
	C310.232483,371.435455 306.438965,370.224396 302.567902,369.361053 
	C301.480652,369.118561 300.165497,369.898041 298.954865,370.208771 
	C288.546356,366.646820 280.377869,359.662781 272.057617,352.389709 
M309.431122,322.485687 
	C309.431122,322.485687 309.518494,322.437195 309.431122,322.485687 
z"/><path fill="#0BD9C7" opacity="1.000000" stroke="none" 
	d="
M475.677368,224.918411 
	C474.718750,225.433487 473.210602,226.449188 472.208862,226.082245 
	C453.839508,219.353912 434.917450,217.329605 415.418610,217.859207 
	C393.446808,218.455978 371.446075,217.938751 349.458344,218.015701 
	C331.980957,218.076874 315.975128,222.711151 301.019531,232.135071 
	C283.638214,243.087479 271.341461,257.805084 263.888214,276.793457 
	C262.806610,279.549042 261.534180,282.229736 260.206757,285.273773 
	C259.529175,285.107330 258.536377,284.863403 258.067322,284.748169 
	C256.853882,286.979279 255.799652,288.917572 254.393951,290.926331 
	C257.019836,272.297668 265.585754,256.367523 278.652679,242.924515 
	C298.284515,222.727676 322.407745,212.453964 350.549866,212.182449 
	C377.365448,211.923752 404.185852,212.054428 431.003540,212.161316 
	C445.738098,212.220032 459.615448,215.992538 472.711395,222.674820 
	C473.696289,223.177368 474.484100,224.066193 475.677368,224.918411 
z"/><path fill="#2479C0" opacity="1.000000" stroke="none" 
	d="
M266.898590,387.415314 
	C275.537384,392.271484 283.921600,397.670654 292.870239,401.865845 
	C309.310638,409.573273 326.970062,412.500427 345.576782,413.827637 
	C347.935883,415.212952 349.725830,416.121277 352.672180,417.616425 
	C351.365143,418.443939 350.493347,419.323730 349.461639,419.595123 
	C343.579407,421.142365 337.672058,423.688477 331.748840,423.756134 
	C319.732605,423.893402 307.707764,422.439758 295.673248,422.063446 
	C285.140656,421.734131 274.590027,421.981964 264.091827,421.583588 
	C266.570984,410.057159 269.225800,398.939972 266.898590,387.415314 
z"/><path fill="#EFEFEF" opacity="1.000000" stroke="none" 
	d="
M1356.943359,374.370178 
	C1360.891846,374.345123 1364.892212,374.450378 1368.775391,375.179382 
	C1369.876709,375.386139 1371.622314,377.653076 1371.399048,378.565796 
	C1369.417358,386.666382 1371.926514,389.893280 1380.664917,389.431519 
	C1380.486938,387.696136 1380.310547,385.975922 1380.134155,384.255707 
	C1380.443726,384.424957 1380.753174,384.594177 1381.062744,384.763428 
	C1382.703491,382.483978 1384.344238,380.204559 1385.988770,377.542328 
	C1399.595459,383.787231 1411.406738,381.691193 1421.230591,369.524963 
	C1426.666260,373.654785 1431.910522,377.639252 1437.447388,381.845947 
	C1427.038330,395.661041 1413.133667,401.560516 1396.569214,400.665985 
	C1378.611572,399.696198 1364.991455,391.271912 1356.943359,374.370178 
z"/><path fill="#03C0C2" opacity="1.000000" stroke="none" 
	d="
M465.923920,283.428833 
	C473.166351,274.439331 481.928040,268.680206 494.118195,268.908997 
	C511.853577,269.241852 513.385742,270.234039 518.657532,287.007233 
	C519.422913,289.442352 518.394897,293.467529 523.155640,294.076904 
	C525.135071,303.468018 524.854370,312.698364 521.173157,321.660889 
	C518.046753,315.782593 517.445740,309.956421 518.840393,303.645111 
	C519.968750,298.539062 516.855591,294.043091 511.615295,293.580841 
	C507.212189,293.192413 502.575531,294.314087 498.186737,295.368469 
	C495.901733,295.917419 492.573608,296.341888 492.940308,300.208832 
	C484.013489,294.701477 475.086670,289.194153 465.923920,283.428833 
z"/><path fill="#EFEFEF" opacity="1.000000" stroke="none" 
	d="
M691.878662,373.454590 
	C698.671509,373.718445 705.829712,373.436493 709.086609,381.221954 
	C709.463745,382.123474 709.853821,383.080139 709.932861,384.036438 
	C710.677429,393.048035 711.341187,402.066315 712.087891,411.077728 
	C712.134827,411.644409 712.680542,412.169769 713.356445,412.850037 
	C713.803650,416.034485 713.888672,419.083252 713.513062,422.682739 
	C713.271484,425.152588 713.490479,427.071655 713.709534,428.990723 
	C713.709534,431.600067 713.709534,434.209381 713.709534,437.150452 
	C706.447815,437.150452 699.388916,437.150452 691.755920,437.150452 
	C691.755920,416.038727 691.755920,394.973969 691.878662,373.454590 
z"/><path fill="#FBFBFB" opacity="1.000000" stroke="none" 
	d="
M1007.786011,320.536072 
	C1007.182678,321.032928 1006.427917,320.878815 1006.232422,321.141296 
	C1000.927795,328.263306 993.259399,325.578308 985.907288,325.992493 
	C985.408447,308.971588 985.347107,291.949890 985.645874,274.420654 
	C986.341309,273.385162 986.676697,272.857208 987.012085,272.329224 
	C991.396362,272.242737 995.780701,272.156219 1000.842773,272.391724 
	C1002.335205,272.839996 1003.149963,272.966278 1004.080444,273.456299 
	C1005.339966,274.138367 1006.483765,274.456757 1007.627502,274.775146 
	C1007.716736,289.876526 1007.805969,304.977875 1007.786011,320.536072 
z"/><path fill="#EFEFEF" opacity="1.000000" stroke="none" 
	d="
M756.110046,371.027039 
	C762.190979,374.058136 768.394226,373.643677 774.731262,371.906006 
	C775.826233,371.605743 777.202759,372.332581 778.727478,372.793762 
	C771.738892,400.039642 735.784485,410.145966 716.039673,390.348755 
	C716.398132,389.815216 716.828613,389.481567 717.293640,389.423279 
	C724.643921,388.501465 725.960083,387.810120 732.291870,381.230133 
	C733.133667,380.979980 733.571106,381.139832 734.103088,381.618225 
	C735.220032,382.712280 736.154846,383.659546 737.280212,384.232727 
	C741.510742,386.387421 745.238037,384.396729 746.127869,379.474670 
	C749.602844,376.491577 752.856445,373.759308 756.110046,371.027039 
z"/><path fill="#05A4AC" opacity="1.000000" stroke="none" 
	d="
M299.187378,370.462219 
	C300.165497,369.898041 301.480652,369.118561 302.567902,369.361053 
	C306.438965,370.224396 310.232483,371.435455 314.580078,372.663025 
	C311.823303,367.761658 308.674957,364.268372 307.875793,360.301849 
	C306.250305,352.233948 305.415009,343.921082 305.233337,335.687531 
	C305.153320,332.061432 305.361877,326.757629 312.132568,327.075378 
	C315.583160,331.535156 318.594360,335.967377 321.369202,340.702332 
	C320.126617,342.554688 317.977539,344.404846 318.293640,345.606659 
	C320.998413,355.891235 327.195404,363.823883 336.655396,368.580475 
	C342.788788,371.664276 349.522583,373.553833 355.987335,375.978516 
	C351.579102,376.611969 347.170837,377.245422 342.023346,377.584290 
	C337.210907,377.456482 333.137726,377.623260 329.064545,377.790009 
	C319.182983,375.431885 309.301453,373.073761 299.187378,370.462219 
z"/><path fill="#2C84D5" opacity="1.000000" stroke="none" 
	d="
M264.047363,421.974792 
	C274.590027,421.981964 285.140656,421.734131 295.673248,422.063446 
	C307.707764,422.439758 319.732605,423.893402 331.748840,423.756134 
	C337.672058,423.688477 343.579407,421.142365 349.461639,419.595123 
	C350.493347,419.323730 351.365143,418.443939 352.672180,417.616425 
	C349.725830,416.121277 347.935883,415.212952 345.954712,413.948669 
	C347.172150,413.531921 348.580841,413.471130 350.387756,413.523254 
	C352.624420,414.091064 354.466919,414.530548 356.300537,415.004181 
	C359.830688,415.916107 363.355835,416.847290 367.566895,417.949493 
	C363.961578,423.608673 358.754547,424.106384 354.256897,425.698578 
	C350.999847,426.851624 347.612549,427.746979 344.211609,428.358551 
	C338.396057,429.404419 332.541077,430.721741 326.672974,430.889954 
	C310.814667,431.344391 294.947083,430.472107 279.187012,433.725586 
	C274.033661,434.789429 268.356232,433.314453 262.461548,432.587708 
	C262.336914,429.449432 262.669220,426.724030 263.236877,423.817993 
	C263.663910,423.083130 263.855652,422.528961 264.047363,421.974792 
z"/><path fill="#038F95" opacity="1.000000" stroke="none" 
	d="
M356.393921,376.001343 
	C349.522583,373.553833 342.788788,371.664276 336.655396,368.580475 
	C327.195404,363.823883 320.998413,355.891235 318.293640,345.606659 
	C317.977539,344.404846 320.126617,342.554688 321.515472,340.997437 
	C335.373596,354.335724 351.915771,363.193054 369.654053,372.801727 
	C364.443848,374.107941 360.622192,375.066040 356.393921,376.001343 
z"/><path fill="#06B4BC" opacity="1.000000" stroke="none" 
	d="
M493.021667,300.429352 
	C492.573608,296.341888 495.901733,295.917419 498.186737,295.368469 
	C502.575531,294.314087 507.212189,293.192413 511.615295,293.580841 
	C516.855591,294.043091 519.968750,298.539062 518.840393,303.645111 
	C517.445740,309.956421 518.046753,315.782593 520.838135,321.823059 
	C520.860291,324.550659 520.599792,327.029144 520.361084,329.300293 
	C513.143494,321.290436 506.236420,313.625122 499.144287,305.292480 
	C497.285248,303.423218 495.611237,302.221222 493.937256,301.019226 
	C493.597504,301.035370 493.319427,300.912262 493.021667,300.429352 
z"/><path fill="#40A3F5" opacity="1.000000" stroke="none" 
	d="
M263.001556,423.998657 
	C262.669220,426.724030 262.336914,429.449432 261.998657,432.587189 
	C261.326202,437.029144 260.659668,441.058746 259.723389,445.794250 
	C258.639435,449.995850 257.825195,453.491516 257.010986,456.987213 
	C255.693451,462.898010 254.580475,468.864441 252.992447,474.701630 
	C251.762344,479.223236 250.188385,483.695435 248.272964,487.967957 
	C247.309555,490.116913 247.196289,490.937744 250.063034,491.119568 
	C248.304489,492.572174 246.172699,493.983612 244.040894,495.395050 
	C243.657959,495.166321 243.275009,494.937592 242.892059,494.708862 
	C244.125870,487.982758 245.347458,481.254364 246.595917,474.530975 
	C249.738419,457.607513 252.893036,440.686249 256.535828,423.281494 
	C257.083588,422.075043 257.138367,421.351196 257.193176,420.627380 
	C257.193176,420.627380 257.086945,420.234955 257.488190,420.394592 
	C259.593475,421.702393 261.297516,422.850525 263.001556,423.998657 
z"/><path fill="#3C94F3" opacity="1.000000" stroke="none" 
	d="
M263.236877,423.817993 
	C261.297516,422.850525 259.593475,421.702393 257.590057,420.218689 
	C257.131317,419.684021 257.112854,419.472412 257.756927,419.093079 
	C260.775909,417.348846 260.814484,415.704803 258.388794,414.005707 
	C260.087463,404.582550 261.786163,395.159393 263.587830,385.164856 
	C264.720764,385.849304 265.582184,386.369720 266.671082,387.152710 
	C269.225800,398.939972 266.570984,410.057159 264.091858,421.583588 
	C263.855652,422.528961 263.663910,423.083130 263.236877,423.817993 
z"/><path fill="#F6F6F6" opacity="1.000000" stroke="none" 
	d="
M1158.512939,379.458679 
	C1159.419312,379.662445 1160.853516,380.308411 1160.861572,380.971771 
	C1160.961792,389.177643 1160.875488,397.386353 1160.744019,405.592834 
	C1160.736816,406.041656 1159.910645,406.477325 1159.048706,407.022400 
	C1158.547119,398.053467 1158.462646,388.981201 1158.512939,379.458679 
z"/><path fill="#ECEBEB" opacity="1.000000" stroke="none" 
	d="
M1039.068115,396.374481 
	C1047.177124,395.971130 1055.393066,395.927673 1064.116211,395.830109 
	C1065.193481,396.321533 1065.763794,396.867096 1067.334839,398.370117 
	C1057.799438,398.370117 1049.379639,398.403534 1040.961548,398.299683 
	C1040.359741,398.292236 1039.770264,397.279602 1039.068115,396.374481 
z"/><path fill="#ECEBEB" opacity="1.000000" stroke="none" 
	d="
M1028.343018,382.302673 
	C1033.160156,382.234802 1034.791260,385.313293 1034.855469,390.122223 
	C1032.684570,387.901245 1030.561279,385.260223 1028.343018,382.302673 
z"/><path fill="#038F95" opacity="1.000000" stroke="none" 
	d="
M329.398071,378.004089 
	C333.137726,377.623260 337.210907,377.456482 341.603210,377.529724 
	C337.858765,377.919250 333.795197,378.068695 329.398071,378.004089 
z"/><path fill="#01CBC3" opacity="1.000000" stroke="none" 
	d="
M311.350281,306.804718 
	C309.138245,302.949799 312.187012,300.697540 314.739471,298.090790 
	C313.925903,300.885437 312.761963,303.722504 311.350281,306.804718 
z"/><path fill="#ECEBEB" opacity="1.000000" stroke="none" 
	d="
M988.448730,398.389313 
	C990.640320,394.254791 993.699097,395.438354 996.901978,397.902557 
	C994.273743,398.382416 991.575745,398.458099 988.448730,398.389313 
z"/><path fill="#40A3F5" opacity="1.000000" stroke="none" 
	d="
M375.664307,411.374939 
	C374.743225,415.785004 371.925629,414.037323 369.152405,412.662445 
	C371.089630,411.996368 373.151520,411.674988 375.664307,411.374939 
z"/><path fill="#ECEBEB" opacity="1.000000" stroke="none" 
	d="
M1449.838013,384.835541 
	C1450.803345,384.272217 1451.849854,383.967865 1452.896240,383.663513 
	C1452.911255,384.756348 1452.926270,385.849213 1452.593262,387.118439 
	C1451.469727,386.561371 1450.694458,385.827942 1449.838013,384.835541 
z"/><path fill="#EFEFEF" opacity="1.000000" stroke="none" 
	d="
M1127.709717,362.406891 
	C1127.956543,363.877380 1128.170410,365.779602 1128.121338,367.852692 
	C1127.797729,366.295258 1127.737305,364.566925 1127.709717,362.406891 
z"/><path fill="#F6F6F6" opacity="1.000000" stroke="none" 
	d="
M713.829468,428.575684 
	C713.490479,427.071655 713.271484,425.152588 713.381470,423.121979 
	C713.790100,424.727173 713.869751,426.443939 713.829468,428.575684 
z"/><path fill="#ECEBEB" opacity="1.000000" stroke="none" 
	d="
M1003.964661,273.092590 
	C1003.149963,272.966278 1002.335205,272.839996 1001.303467,272.492065 
	C1003.189392,272.282135 1005.292297,272.293884 1007.038818,272.662659 
	C1005.776428,273.044006 1004.870544,273.068298 1003.964661,273.092590 
z"/><path fill="#03C0C2" opacity="1.000000" stroke="none" 
	d="
M494.099335,301.316803 
	C495.611237,302.221222 497.285248,303.423218 499.001770,305.017334 
	C497.449982,304.144470 495.855713,302.879425 494.099335,301.316803 
z"/><path fill="#40A3F5" opacity="1.000000" stroke="none" 
	d="
M258.224701,414.399780 
	C260.814484,415.704803 260.775909,417.348846 257.886047,418.980713 
	C257.682587,417.613617 257.871582,416.203735 258.224701,414.399780 
z"/><path fill="#ECEBEB" opacity="1.000000" stroke="none" 
	d="
M1489.498901,400.430054 
	C1490.810791,399.979980 1492.475708,399.644196 1494.498413,399.487366 
	C1493.188110,399.959015 1491.520020,400.251678 1489.498901,400.430054 
z"/><path fill="#EFEFEF" opacity="1.000000" stroke="none" 
	d="
M1255.099609,347.372009 
	C1255.287964,348.308441 1255.296387,349.533661 1255.049561,350.891785 
	C1254.836060,349.903412 1254.877808,348.782074 1255.099609,347.372009 
z"/><path fill="#EFEFEF" opacity="1.000000" stroke="none" 
	d="
M788.994507,349.316772 
	C789.197449,349.963257 789.240356,350.879120 789.039795,351.909790 
	C788.809082,351.211761 788.821716,350.398956 788.994507,349.316772 
z"/><path fill="#EFEFEF" opacity="1.000000" stroke="none" 
	d="
M788.760498,357.268188 
	C789.100464,357.851715 789.338135,358.726166 789.370605,359.771057 
	C788.996399,359.147369 788.827271,358.353241 788.760498,357.268188 
z"/><path fill="#ECEBEB" opacity="1.000000" stroke="none" 
	d="
M1475.434814,399.556519 
	C1476.303467,399.400085 1477.383057,399.451019 1478.749512,399.798462 
	C1477.906006,399.984589 1476.775879,399.874207 1475.434814,399.556519 
z"/><path fill="#ECEBEB" opacity="1.000000" stroke="none" 
	d="
M1002.334106,398.421539 
	C1002.828308,397.545074 1003.630188,396.804382 1004.432068,396.063721 
	C1004.354492,396.622559 1004.276917,397.181396 1004.062012,398.002502 
	C1003.497070,398.362305 1003.069458,398.459808 1002.334106,398.421539 
z"/><path fill="#EFEFEF" opacity="1.000000" stroke="none" 
	d="
M1254.642700,358.249146 
	C1255.016846,358.919922 1255.280396,359.864166 1255.342407,361.087677 
	C1254.937988,360.418823 1254.735107,359.470703 1254.642700,358.249146 
z"/><path fill="#ECEBEB" opacity="1.000000" stroke="none" 
	d="
M1527.364014,347.736237 
	C1526.978638,347.150024 1526.710815,346.272491 1526.654785,345.221466 
	C1527.071411,345.846954 1527.276611,346.645966 1527.364014,347.736237 
z"/><path fill="#F4F4F4" opacity="1.000000" stroke="none" 
	d="
M1004.080444,273.456299 
	C1004.870544,273.068298 1005.776428,273.044006 1007.135559,273.020111 
	C1007.683594,273.413483 1007.778442,273.806427 1007.750366,274.487274 
	C1006.483765,274.456757 1005.339966,274.138367 1004.080444,273.456299 
z"/><path fill="#EFEFEF" opacity="1.000000" stroke="none" 
	d="
M884.006165,348.262146 
	C884.242126,348.924835 884.329651,349.802673 884.169556,350.855133 
	C883.900574,350.178925 883.879150,349.328125 884.006165,348.262146 
z"/><path fill="#EFEFEF" opacity="1.000000" stroke="none" 
	d="
M1353.044800,347.327240 
	C1353.244995,347.968262 1353.287720,348.876526 1353.095459,349.904053 
	C1352.869263,349.213654 1352.878296,348.404083 1353.044800,347.327240 
z"/><path fill="#ECEBEB" opacity="1.000000" stroke="none" 
	d="
M1455.277954,390.232788 
	C1456.066895,390.441528 1456.985229,390.931335 1457.948975,391.760315 
	C1457.132080,391.570953 1456.269775,391.042389 1455.277954,390.232788 
z"/><path fill="#01CBC3" opacity="1.000000" stroke="none" 
	d="
M315.325195,297.931152 
	C315.539307,297.115143 316.023468,296.142151 316.875916,295.166412 
	C316.694580,296.033844 316.144928,296.904022 315.325195,297.931152 
z"/><path fill="#ECEBEB" opacity="1.000000" stroke="none" 
	d="
M1030.303467,349.682251 
	C1030.215576,349.373352 1030.140137,348.719818 1030.302002,348.021912 
	C1030.464844,348.430878 1030.390381,348.884216 1030.303467,349.682251 
z"/><path fill="#EFEFEF" opacity="1.000000" stroke="none" 
	d="
M1374.889038,349.769592 
	C1374.701904,349.360321 1374.657349,348.794891 1374.833862,348.104492 
	C1375.047119,348.524139 1375.039307,349.068787 1374.889038,349.769592 
z"/><path fill="#ECEBEB" opacity="1.000000" stroke="none" 
	d="
M1015.029541,365.325134 
	C1015.587830,365.584076 1016.222229,366.150757 1016.847412,367.074066 
	C1016.260742,366.831421 1015.683167,366.232147 1015.029541,365.325134 
z"/><path fill="#3C94F3" opacity="1.000000" stroke="none" 
	d="
M257.040314,420.825378 
	C257.138367,421.351196 257.083588,422.075043 256.724701,422.901062 
	C256.576202,422.343292 256.731812,421.683319 257.040314,420.825378 
z"/><path fill="#F4F4F4" opacity="1.000000" stroke="none" 
	d="
M986.715210,272.234741 
	C986.676697,272.857208 986.341309,273.385162 985.761353,273.966553 
	C985.817322,273.393433 986.117798,272.766846 986.715210,272.234741 
z"/><path fill="#ECEBEB" opacity="1.000000" stroke="none" 
	d="
M1008.063354,357.790100 
	C1007.640320,357.495667 1007.517090,357.068542 1007.393799,356.641418 
	C1007.903870,356.798187 1008.413940,356.954956 1008.970947,357.363831 
	C1008.799561,357.629730 1008.581360,357.643524 1008.063354,357.790100 
z"/><path fill="#EFEFEF" opacity="1.000000" stroke="none" 
	d="
M684.187134,358.775146 
	C683.900696,358.442444 683.710876,357.865112 683.707825,357.162720 
	C684.024292,357.535278 684.153992,358.032867 684.187134,358.775146 
z"/><path fill="#ECEBEB" opacity="1.000000" stroke="none" 
	d="
M1247.248047,347.585327 
	C1247.087524,347.348969 1246.985229,346.932037 1246.909180,346.351868 
	C1247.059082,346.593964 1247.182617,346.999390 1247.248047,347.585327 
z"/><path fill="#ECEBEB" opacity="1.000000" stroke="none" 
	d="
M1035.975586,392.327179 
	C1036.551880,392.606995 1037.196533,393.208832 1037.822998,394.181519 
	C1037.217896,393.917969 1036.630981,393.283569 1035.975586,392.327179 
z"/><path fill="#ECEBEB" opacity="1.000000" stroke="none" 
	d="
M1526.179443,340.723877 
	C1525.815918,340.299927 1525.498169,339.575745 1525.274658,338.537720 
	C1525.654297,338.957123 1525.939941,339.690369 1526.179443,340.723877 
z"/><path fill="#EFEFEF" opacity="1.000000" stroke="none" 
	d="
M1375.124268,359.823090 
	C1374.816284,359.473541 1374.610107,358.939667 1374.591797,358.240906 
	C1374.928589,358.596954 1375.077393,359.117859 1375.124268,359.823090 
z"/><path fill="#EFEFEF" opacity="1.000000" stroke="none" 
	d="
M1352.791260,359.223633 
	C1353.098877,359.552582 1353.304077,360.125580 1353.324219,360.824585 
	C1352.989014,360.456268 1352.838867,359.961975 1352.791260,359.223633 
z"/><path fill="#ECEBEB" opacity="1.000000" stroke="none" 
	d="
M1492.772949,380.756592 
	C1492.468384,381.086517 1491.911377,381.340210 1491.218140,381.418518 
	C1491.561401,381.055573 1492.040894,380.867950 1492.772949,380.756592 
z"/><path fill="#ECEBEB" opacity="1.000000" stroke="none" 
	d="
M1011.020996,360.307556 
	C1011.580078,360.559143 1012.220947,361.115173 1012.857300,362.025543 
	C1012.269470,361.790558 1011.686096,361.201294 1011.020996,360.307556 
z"/><path fill="#EFEFEF" opacity="1.000000" stroke="none" 
	d="
M877.308594,346.775452 
	C876.974487,346.445679 876.751099,345.868958 876.719238,345.162231 
	C877.080200,345.530975 877.249756,346.029755 877.308594,346.775452 
z"/><path fill="#EFEFEF" opacity="1.000000" stroke="none" 
	d="
M1376.290039,364.717255 
	C1375.912964,364.290619 1375.564209,363.558258 1375.323364,362.501953 
	C1375.727051,362.922516 1376.022705,363.667023 1376.290039,364.717255 
z"/><path fill="#EFEFEF" opacity="1.000000" stroke="none" 
	d="
M789.703613,364.269196 
	C790.062378,364.733887 790.347961,365.490295 790.453125,366.542084 
	C790.058594,366.078613 789.844482,365.319794 789.703613,364.269196 
z"/><path fill="#3ABBF4" opacity="1.000000" stroke="none" 
	d="
M520.349426,399.143433 
	C520.222839,398.954407 520.355713,398.644440 520.689697,398.176147 
	C520.796753,398.352692 520.702820,398.687592 520.349426,399.143433 
z"/><path fill="#06B4BC" opacity="1.000000" stroke="none" 
	d="
M271.062164,351.262695 
	C271.350525,351.135559 271.592407,351.347961 271.853058,351.864929 
	C271.652527,351.905182 271.367126,351.716064 271.062164,351.262695 
z"/><path fill="#ECEBEB" opacity="1.000000" stroke="none" 
	d="
M1322.757690,318.530640 
	C1322.731445,318.590942 1322.432129,318.620544 1322.042969,318.505249 
	C1322.130249,318.406830 1322.307373,318.453369 1322.757690,318.530640 
z"/><path fill="#3C94F3" opacity="1.000000" stroke="none" 
	d="
M257.386475,457.038391 
	C257.825195,453.491516 258.639435,449.995850 259.720825,446.249268 
	C279.629913,447.030365 298.978394,444.746979 318.267120,441.229645 
	C326.517181,439.725220 335.179749,440.047455 343.212372,437.891266 
	C354.356110,434.899963 365.232147,430.716766 375.915436,426.300354 
	C380.214661,424.523102 383.777618,420.872375 387.491333,417.847961 
	C388.250580,417.229645 388.185730,415.599426 388.252014,414.215332 
	C391.846466,413.376221 395.325104,409.685669 399.841583,412.213440 
	C396.753082,417.177277 393.917236,421.735016 391.039490,426.647003 
	C384.985443,429.673523 379.024933,432.470276 372.949615,434.990265 
	C362.708588,439.238220 352.727753,444.901581 342.044708,447.138062 
	C316.874451,452.407471 291.714111,458.861420 265.565155,457.028503 
	C262.978241,456.847168 260.363678,457.059784 257.386475,457.038391 
z"/><path fill="#050915" opacity="1.000000" stroke="none" 
	d="
M1498.958008,344.273438 
	C1486.676514,344.280304 1474.887207,344.280304 1463.066650,344.280304 
	C1464.076172,334.065094 1473.266602,326.771210 1484.702759,326.777344 
	C1495.774292,326.783325 1504.109497,333.653961 1505.298950,344.266541 
	C1503.312988,344.266541 1501.381592,344.266541 1498.958008,344.273438 
z"/><path fill="#ECEBEB" opacity="1.000000" stroke="none" 
	d="
M1482.997803,398.043304 
	C1485.134766,398.010071 1486.927368,398.010071 1488.720093,398.010071 
	C1488.729004,398.313019 1488.737915,398.615967 1488.746704,398.918915 
	C1486.761597,398.918915 1484.776367,398.923523 1482.791382,398.908966 
	C1482.651855,398.907928 1482.386719,398.739197 1482.396240,398.692566 
	C1482.439941,398.478607 1482.560425,398.280396 1482.997803,398.043304 
z"/><path fill="#050915" opacity="1.000000" stroke="none" 
	d="
M756.164795,370.674011 
	C752.856445,373.759308 749.602844,376.491577 745.713989,379.536194 
	C741.388672,380.332245 737.698608,380.815948 734.008484,381.299652 
	C733.571106,381.139832 733.133667,380.979980 732.348999,380.890839 
	C714.554077,374.336304 707.678772,353.537842 717.807678,337.697510 
	C722.504028,330.353058 729.410706,326.811218 738.104248,327.372650 
	C746.528748,327.916656 753.115967,331.880219 756.761658,339.610718 
	C761.584839,349.837921 761.463623,360.173615 756.164795,370.674011 
z"/><path fill="#050915" opacity="1.000000" stroke="none" 
	d="
M827.021179,327.582275 
	C840.335022,325.397156 849.122925,329.034485 853.662781,338.444702 
	C854.421692,340.017700 854.683533,341.830536 855.335388,344.087402 
	C840.539734,344.087402 826.335693,344.087402 811.635132,344.087402 
	C813.969543,335.761139 818.820740,330.410980 827.021179,327.582275 
z"/><path fill="#050915" opacity="1.000000" stroke="none" 
	d="
M949.377258,369.716614 
	C938.286621,384.373199 922.326782,384.842163 910.521484,371.082733 
	C905.378235,362.460632 904.636475,353.274200 906.705322,344.078247 
	C908.909485,334.280426 919.280396,327.177063 929.762024,327.268768 
	C940.208313,327.360168 948.854736,334.184662 951.337097,344.595306 
	C953.339478,352.993256 953.651123,361.350739 949.377258,369.716614 
z"/><path fill="#050915" opacity="1.000000" stroke="none" 
	d="
M1320.111084,369.628723 
	C1314.040527,378.870209 1305.671509,382.672150 1295.231445,380.333282 
	C1284.934326,378.026459 1279.462891,370.685730 1277.062012,360.342590 
	C1276.099854,352.566711 1276.889893,345.351044 1280.513916,338.731171 
	C1284.989746,330.555328 1294.224243,326.038361 1303.182739,327.309998 
	C1312.546753,328.639160 1319.995972,335.221558 1322.027588,344.854370 
	C1323.759399,353.066345 1323.947021,361.368469 1320.111084,369.628723 
z"/><path fill="#050915" opacity="1.000000" stroke="none" 
	d="
M1226.079956,360.720032 
	C1223.778564,369.870941 1219.710449,377.160858 1210.420776,380.001587 
	C1198.437012,383.666107 1187.508057,378.146576 1181.694092,365.472015 
	C1180.856567,359.673584 1178.318970,354.732361 1180.010864,348.495148 
	C1183.888062,334.200745 1192.927612,327.257324 1203.235474,327.241669 
	C1214.801025,327.224091 1222.770142,334.363281 1225.900879,347.764679 
	C1225.938721,347.926758 1225.967285,348.091064 1226.071899,348.959778 
	C1226.330322,350.804535 1226.516968,351.943878 1226.703735,353.083191 
	C1226.488892,355.477081 1226.274048,357.870972 1226.079956,360.720032 
z"/><path fill="#ECEBEB" opacity="1.000000" stroke="none" 
	d="
M1227.058594,353.010132 
	C1226.516968,351.943878 1226.330322,350.804535 1226.222656,349.323090 
	C1227.158691,349.100708 1228.015503,349.220459 1228.872437,349.340210 
	C1228.385986,350.539154 1227.899658,351.738129 1227.058594,353.010132 
z"/><path fill="#03C0C2" opacity="1.000000" stroke="none" 
	d="
M309.474792,322.461426 
	C309.518494,322.437195 309.431122,322.485687 309.474792,322.461426 
z"/><path fill="#F6F6F6" opacity="1.000000" stroke="none" 
	d="
M734.103088,381.618225 
	C737.698608,380.815948 741.388672,380.332245 745.492676,379.786987 
	C745.238037,384.396729 741.510742,386.387421 737.280212,384.232727 
	C736.154846,383.659546 735.220032,382.712280 734.103088,381.618225 
z"/></svg>