<svg xmlns="http://www.w3.org/2000/svg" viewBox="225 195 310 320" role="img" aria-label="SpeakSpace"><path fill="#01CBC3" opacity="1.000000" stroke="none" 
	d="
M475.991180,225.061371 
	C488.100983,230.209122 497.425171,238.979691 504.966370,249.307114 
	C513.406433,260.865631 520.432922,273.363678 522.172485,288.065552 
	C522.380432,289.822845 523.149536,291.513763 523.191528,293.635223 
	C518.394897,293.467529 519.422913,289.442352 518.657532,287.007233 
	C513.385742,270.234039 511.853577,269.241852 494.118195,268.908997 
	C481.928040,268.680206 473.166351,274.439331 465.687988,283.170807 
	C442.400665,272.958221 418.112671,267.487946 392.614685,267.791260 
	C373.260223,268.021515 354.427673,271.164124 337.241943,280.338837 
	C330.193573,284.101685 324.254791,289.942932 317.461365,294.576294 
	C316.850128,287.497833 315.730042,285.668732 309.466705,285.187134 
	C297.011017,284.229309 284.682098,285.728912 272.761780,289.372772 
	C268.904144,290.552002 264.465790,292.640930 262.232025,295.720276 
	C257.981506,301.579803 258.424744,308.852509 259.429504,315.877197 
	C259.630829,317.284729 259.950623,319.144226 259.260895,320.121063 
	C257.305603,322.890350 257.177399,325.456390 258.583221,328.426147 
	C258.879059,329.051117 258.184326,330.144958 257.946014,331.022766 
	C251.912674,318.413361 250.656967,305.279449 254.186279,291.268738 
	C255.799652,288.917572 256.853882,286.979279 258.067322,284.748169 
	C258.536377,284.863403 259.529175,285.107330 260.206757,285.273773 
	C261.534180,282.229736 262.806610,279.549042 263.888214,276.793457 
	C271.341461,257.805084 283.638214,243.087479 301.019531,232.135071 
	C315.975128,222.711151 331.980957,218.076874 349.458344,218.015701 
	C371.446075,217.938751 393.446808,218.455978 415.418610,217.859207 
	C434.917450,217.329605 453.839508,219.353912 472.208862,226.082245 
	C473.210602,226.449188 474.718750,225.433487 475.991180,225.061371 
z"/><path fill="#4297F8" opacity="1.000000" stroke="none" 
	d="
M494.150146,442.327820 
	C476.731110,457.845093 456.063965,465.372803 433.028381,465.779663 
	C405.052277,466.273743 377.059937,466.029907 349.076752,465.821014 
	C341.619110,465.765350 334.179413,464.461212 326.713623,464.097229 
	C312.327240,463.395874 298.878296,467.193695 286.108002,473.489471 
	C274.381470,479.270691 262.797424,485.340851 250.420166,491.181030 
	C247.196289,490.937744 247.309555,490.116913 248.272964,487.967957 
	C250.188385,483.695435 251.762344,479.223236 252.992447,474.701630 
	C254.580475,468.864441 255.693451,462.898010 257.386475,457.038391 
	C260.363678,457.059784 262.978241,456.847168 265.565155,457.028503 
	C291.714111,458.861420 316.874451,452.407471 342.044708,447.138062 
	C352.727753,444.901581 362.708588,439.238220 372.949615,434.990265 
	C379.024933,432.470276 384.985443,429.673523 391.301971,427.157349 
	C394.458313,429.393097 397.054932,432.120636 400.232880,433.372803 
	C403.508606,434.663483 407.366852,435.025635 410.941589,434.909912 
	C424.657410,434.465820 438.355835,433.376434 452.072266,433.100250 
	C461.490875,432.910645 470.947113,434.175537 480.351532,433.831909 
	C487.326050,433.577057 492.986877,433.864136 494.150146,442.327820 
z"/><path fill="#33C8F4" opacity="1.000000" stroke="none" 
	d="
M410.945496,350.178650 
	C395.607666,343.884735 379.113678,340.133606 365.531189,329.984253 
	C361.330383,326.845245 357.646423,323.014557 352.312134,318.233429 
	C360.460205,314.328918 366.960693,310.287476 374.028259,307.992157 
	C400.587219,299.366669 427.250061,300.625519 453.464996,309.479675 
	C477.212799,317.500580 497.398499,330.879425 511.732635,351.946442 
	C517.109192,359.848419 520.983398,368.479980 521.623474,378.496094 
	C520.607361,378.108185 519.838501,377.457672 519.414307,376.630493 
	C516.238220,370.438049 513.130310,364.210693 509.963348,357.650940 
	C509.371338,354.186371 509.529419,351.043793 506.303497,348.734009 
	C499.858124,344.118988 493.817169,338.942627 487.507477,334.131470 
	C486.263336,333.182892 483.968750,331.870605 483.164520,332.364410 
	C477.216919,336.016174 470.891541,333.580994 464.780121,334.104187 
	C461.082397,334.420746 457.515503,336.158386 453.814026,336.561981 
	C446.962189,337.309113 440.045593,337.439423 433.172943,338.025635 
	C426.583893,338.587677 419.997742,339.264038 413.445160,340.148499 
	C407.962067,340.888580 407.265656,342.619019 410.112732,346.915436 
	C410.698334,347.799072 410.683563,349.080566 410.945496,350.178650 
z"/><path fill="#40A3F5" opacity="1.000000" stroke="none" 
	d="
M494.468201,442.202301 
	C492.986877,433.864136 487.326050,433.577057 480.351532,433.831909 
	C470.947113,434.175537 461.490875,432.910645 452.072266,433.100250 
	C438.355835,433.376434 424.657410,434.465820 410.941589,434.909912 
	C407.366852,435.025635 403.508606,434.663483 400.232880,433.372803 
	C397.054932,432.120636 394.458313,429.393097 391.343872,426.803162 
	C393.917236,421.735016 396.753082,417.177277 399.841583,412.213440 
	C395.325104,409.685669 391.846466,413.376221 387.582245,413.997070 
	C385.712189,414.075104 384.123138,413.793732 382.841278,414.296143 
	C379.434021,415.631470 378.460541,413.822693 377.990021,411.038727 
	C388.090485,408.073639 398.190979,405.108582 408.925354,402.374817 
	C412.281982,402.907196 415.507019,404.262146 417.608643,403.260315 
	C420.695160,401.788940 422.399597,402.901611 424.831543,404.143677 
	C428.574615,406.055328 432.481445,408.297272 436.525146,408.828613 
	C444.045044,409.816711 451.711090,409.833832 459.321106,409.954742 
	C466.958099,410.076111 474.602478,409.695679 482.240845,409.781281 
	C491.667175,409.886871 501.090698,410.246521 509.544739,410.470673 
	C510.179382,415.701813 510.623566,419.363342 511.067780,423.024872 
	C505.640594,429.375519 500.213409,435.726166 494.468201,442.202301 
z"/><path fill="#3DB0F4" opacity="1.000000" stroke="none" 
	d="
M511.343079,422.829163 
	C510.623566,419.363342 510.179382,415.701813 509.544739,410.470673 
	C501.090698,410.246521 491.667175,409.886871 482.240845,409.781281 
	C474.602478,409.695679 466.958099,410.076111 459.321106,409.954742 
	C451.711090,409.833832 444.045044,409.816711 436.525146,408.828613 
	C432.481445,408.297272 428.574615,406.055328 424.831543,404.143677 
	C422.399597,402.901611 420.695160,401.788940 417.608643,403.260315 
	C415.507019,404.262146 412.281982,402.907196 409.298157,402.350464 
	C419.307495,397.475739 428.727875,391.703308 436.220276,382.301025 
	C438.848145,382.786285 440.842804,383.932831 442.908142,384.078705 
	C453.928314,384.857086 464.959503,385.607971 475.999725,385.934998 
	C486.271820,386.239319 496.561829,386.114044 506.840393,385.952545 
	C512.081421,385.870178 515.762268,387.521698 517.554871,392.810059 
	C517.992126,394.099915 519.734680,394.947327 520.877075,395.998169 
	C520.919189,396.447754 520.961365,396.897369 520.746094,397.840759 
	C520.355713,398.644440 520.222839,398.954407 520.089966,399.264343 
	C520.390442,408.186676 515.638062,415.277283 511.343079,422.829163 
z"/><path fill="#36C2F4" opacity="1.000000" stroke="none" 
	d="
M411.173401,350.431030 
	C410.683563,349.080566 410.698334,347.799072 410.112732,346.915436 
	C407.265656,342.619019 407.962067,340.888580 413.445160,340.148499 
	C419.997742,339.264038 426.583893,338.587677 433.172943,338.025635 
	C440.045593,337.439423 446.962189,337.309113 453.814026,336.561981 
	C457.515503,336.158386 461.082397,334.420746 464.780121,334.104187 
	C470.891541,333.580994 477.216919,336.016174 483.164520,332.364410 
	C483.968750,331.870605 486.263336,333.182892 487.507477,334.131470 
	C493.817169,338.942627 499.858124,344.118988 506.303497,348.734009 
	C509.529419,351.043793 509.371338,354.186371 509.593201,357.702881 
	C500.473602,363.110565 490.511597,362.620239 481.167633,362.507294 
	C467.179352,362.338257 453.210083,360.074860 439.249268,358.550720 
	C436.076721,358.204346 434.952820,359.451996 435.001038,362.369354 
	C435.037415,364.570282 435.039154,366.771790 435.056335,368.973022 
	C429.482971,359.886658 420.700073,354.951447 411.173401,350.431030 
z"/><path fill="#03C0C2" opacity="1.000000" stroke="none" 
	d="
M257.977997,331.382202 
	C258.184326,330.144958 258.879059,329.051117 258.583221,328.426147 
	C257.177399,325.456390 257.305603,322.890350 259.260895,320.121063 
	C259.950623,319.144226 259.630829,317.284729 259.429504,315.877197 
	C258.424744,308.852509 257.981506,301.579803 262.232025,295.720276 
	C264.465790,292.640930 268.904144,290.552002 272.761780,289.372772 
	C284.682098,285.728912 297.011017,284.229309 309.466705,285.187134 
	C315.730042,285.668732 316.850128,287.497833 317.182251,294.752930 
	C317.252991,295.191956 317.227509,295.158203 316.867554,295.163696 
	C316.023468,296.142151 315.539307,297.115143 315.055145,298.088135 
	C315.055145,298.088135 315.013000,298.016296 314.701050,298.074768 
	C312.187012,300.697540 309.138245,302.949799 311.102539,307.049835 
	C310.407257,309.445374 309.711945,311.840912 308.586853,314.628296 
	C306.177307,315.836914 304.149475,316.554901 302.227417,317.490295 
	C297.785431,319.651978 293.472992,322.095276 288.962860,324.097351 
	C283.687561,326.439087 278.208588,328.319489 272.912659,330.618195 
	C269.281464,332.194397 268.129028,336.337708 270.224152,339.727417 
	C271.617615,341.981873 273.348694,344.029572 274.712524,346.299683 
	C275.511261,347.629181 275.885681,349.213623 276.450989,350.683380 
	C274.939484,351.150391 273.428009,351.617432 271.916504,352.084473 
	C271.916504,352.084473 271.973907,351.994781 271.871063,351.815186 
	C271.592407,351.347961 271.350525,351.135559 271.042572,350.998383 
	C266.698395,344.579468 262.354187,338.160522 257.977997,331.382202 
z"/><path fill="#3ABBF4" opacity="1.000000" stroke="none" 
	d="
M435.146301,369.378296 
	C435.039154,366.771790 435.037415,364.570282 435.001038,362.369354 
	C434.952820,359.451996 436.076721,358.204346 439.249268,358.550720 
	C453.210083,360.074860 467.179352,362.338257 481.167633,362.507294 
	C490.511597,362.620239 500.473602,363.110565 509.630920,358.046173 
	C513.130310,364.210693 516.238220,370.438049 519.414307,376.630493 
	C519.838501,377.457672 520.607361,378.108185 521.566528,378.915466 
	C521.638123,384.405396 521.359802,389.820343 520.979248,395.616730 
	C519.734680,394.947327 517.992126,394.099915 517.554871,392.810059 
	C515.762268,387.521698 512.081421,385.870178 506.840393,385.952545 
	C496.561829,386.114044 486.271820,386.239319 475.999725,385.934998 
	C464.959503,385.607971 453.928314,384.857086 442.908142,384.078705 
	C440.842804,383.932831 438.848145,382.786285 436.451599,382.049011 
	C435.800323,377.925537 435.518311,373.854584 435.146301,369.378296 
z"/><path fill="#348EE5" opacity="1.000000" stroke="none" 
	d="
M377.747498,410.966309 
	C378.460541,413.822693 379.434021,415.631470 382.841278,414.296143 
	C384.123138,413.793732 385.712189,414.075104 387.830994,414.217407 
	C388.185730,415.599426 388.250580,417.229645 387.491333,417.847961 
	C383.777618,420.872375 380.214661,424.523102 375.915436,426.300354 
	C365.232147,430.716766 354.356110,434.899963 343.212372,437.891266 
	C335.179749,440.047455 326.517181,439.725220 318.267120,441.229645 
	C298.978394,444.746979 279.629913,447.030365 259.990540,445.543365 
	C260.659668,441.058746 261.326202,437.029144 262.455627,433.000061 
	C268.356232,433.314453 274.033661,434.789429 279.187012,433.725586 
	C294.947083,430.472107 310.814667,431.344391 326.672974,430.889954 
	C332.541077,430.721741 338.396057,429.404419 344.211609,428.358551 
	C347.612549,427.746979 350.999847,426.851624 354.256897,425.698578 
	C358.754547,424.106384 363.961578,423.608673 367.566895,417.949493 
	C363.355835,416.847290 359.830688,415.916107 356.300537,415.004181 
	C354.466919,414.530548 352.624420,414.091064 350.785950,413.636169 
	C356.587555,413.148956 362.389191,412.661743 368.733917,412.590881 
	C371.925629,414.037323 374.743225,415.785004 376.115265,411.396240 
	C376.578491,411.228790 377.041748,411.061340 377.747498,410.966309 
z"/><path fill="#06B4BC" opacity="1.000000" stroke="none" 
	d="
M272.057617,352.389709 
	C273.428009,351.617432 274.939484,351.150391 276.450989,350.683380 
	C275.885681,349.213623 275.511261,347.629181 274.712524,346.299683 
	C273.348694,344.029572 271.617615,341.981873 270.224152,339.727417 
	C268.129028,336.337708 269.281464,332.194397 272.912659,330.618195 
	C278.208588,328.319489 283.687561,326.439087 288.962860,324.097351 
	C293.472992,322.095276 297.785431,319.651978 302.227417,317.490295 
	C304.149475,316.554901 306.177307,315.836914 308.525146,315.007812 
	C310.072083,318.763428 311.250977,322.531403 312.061523,326.673615 
	C305.361877,326.757629 305.153320,332.061432 305.233337,335.687531 
	C305.415009,343.921082 306.250305,352.233948 307.875793,360.301849 
	C308.674957,364.268372 311.823303,367.761658 314.580078,372.663025 
	C310.232483,371.435455 306.438965,370.224396 302.567902,369.361053 
	C301.480652,369.118561 300.165497,369.898041 298.954865,370.208771 
	C288.546356,366.646820 280.377869,359.662781 272.057617,352.389709 
M309.431122,322.485687 
	C309.431122,322.485687 309.518494,322.437195 309.431122,322.485687 
z"/><path fill="#0BD9C7" opacity="1.000000" stroke="none" 
	d="
M475.677368,224.918411 
	C474.718750,225.433487 473.210602,226.449188 472.208862,226.082245 
	C453.839508,219.353912 434.917450,217.329605 415.418610,217.859207 
	C393.446808,218.455978 371.446075,217.938751 349.458344,218.015701 
	C331.980957,218.076874 315.975128,222.711151 301.019531,232.135071 
	C283.638214,243.087479 271.341461,257.805084 263.888214,276.793457 
	C262.806610,279.549042 261.534180,282.229736 260.206757,285.273773 
	C259.529175,285.107330 258.536377,284.863403 258.067322,284.748169 
	C256.853882,286.979279 255.799652,288.917572 254.393951,290.926331 
	C257.019836,272.297668 265.585754,256.367523 278.652679,242.924515 
	C298.284515,222.727676 322.407745,212.453964 350.549866,212.182449 
	C377.365448,211.923752 404.185852,212.054428 431.003540,212.161316 
	C445.738098,212.220032 459.615448,215.992538 472.711395,222.674820 
	C473.696289,223.177368 474.484100,224.066193 475.677368,224.918411 
z"/><path fill="#2479C0" opacity="1.000000" stroke="none" 
	d="
M266.898590,387.415314 
	C275.537384,392.271484 283.921600,397.670654 292.870239,401.865845 
	C309.310638,409.573273 326.970062,412.500427 345.576782,413.827637 
	C347.935883,415.212952 349.725830,416.121277 352.672180,417.616425 
	C351.365143,418.443939 350.493347,419.323730 349.461639,419.595123 
	C343.579407,421.142365 337.672058,423.688477 331.748840,423.756134 
	C319.732605,423.893402 307.707764,422.439758 295.673248,422.063446 
	C285.140656,421.734131 274.590027,421.981964 264.091827,421.583588 
	C266.570984,410.057159 269.225800,398.939972 266.898590,387.415314 
z"/><path fill="#03C0C2" opacity="1.000000" stroke="none" 
	d="
M465.923920,283.428833 
	C473.166351,274.439331 481.928040,268.680206 494.118195,268.908997 
	C511.853577,269.241852 513.385742,270.234039 518.657532,287.007233 
	C519.422913,289.442352 518.394897,293.467529 523.155640,294.076904 
	C525.135071,303.468018 524.854370,312.698364 521.173157,321.660889 
	C518.046753,315.782593 517.445740,309.956421 518.840393,303.645111 
	C519.968750,298.539062 516.855591,294.043091 511.615295,293.580841 
	C507.212189,293.192413 502.575531,294.314087 498.186737,295.368469 
	C495.901733,295.917419 492.573608,296.341888 492.940308,300.208832 
	C484.013489,294.701477 475.086670,289.194153 465.923920,283.428833 
z"/><path fill="#05A4AC" opacity="1.000000" stroke="none" 
	d="
M299.187378,370.462219 
	C300.165497,369.898041 301.480652,369.118561 302.567902,369.361053 
	C306.438965,370.224396 310.232483,371.435455 314.580078,372.663025 
	C311.823303,367.761658 308.674957,364.268372 307.875793,360.301849 
	C306.250305,352.233948 305.415009,343.921082 305.233337,335.687531 
	C305.153320,332.061432 305.361877,326.757629 312.132568,327.075378 
	C315.583160,331.535156 318.594360,335.967377 321.369202,340.702332 
	C320.126617,342.554688 317.977539,344.404846 318.293640,345.606659 
	C320.998413,355.891235 327.195404,363.823883 336.655396,368.580475 
	C342.788788,371.664276 349.522583,373.553833 355.987335,375.978516 
	C351.579102,376.611969 347.170837,377.245422 342.023346,377.584290 
	C337.210907,377.456482 333.137726,377.623260 329.064545,377.790009 
	C319.182983,375.431885 309.301453,373.073761 299.187378,370.462219 
z"/><path fill="#2C84D5" opacity="1.000000" stroke="none" 
	d="
M264.047363,421.974792 
	C274.590027,421.981964 285.140656,421.734131 295.673248,422.063446 
	C307.707764,422.439758 319.732605,423.893402 331.748840,423.756134 
	C337.672058,423.688477 343.579407,421.142365 349.461639,419.595123 
	C350.493347,419.323730 351.365143,418.443939 352.672180,417.616425 
	C349.725830,416.121277 347.935883,415.212952 345.954712,413.948669 
	C347.172150,413.531921 348.580841,413.471130 350.387756,413.523254 
	C352.624420,414.091064 354.466919,414.530548 356.300537,415.004181 
	C359.830688,415.916107 363.355835,416.847290 367.566895,417.949493 
	C363.961578,423.608673 358.754547,424.106384 354.256897,425.698578 
	C350.999847,426.851624 347.612549,427.746979 344.211609,428.358551 
	C338.396057,429.404419 332.541077,430.721741 326.672974,430.889954 
	C310.814667,431.344391 294.947083,430.472107 279.187012,433.725586 
	C274.033661,434.789429 268.356232,433.314453 262.461548,432.587708 
	C262.336914,429.449432 262.669220,426.724030 263.236877,423.817993 
	C263.663910,423.083130 263.855652,422.528961 264.047363,421.974792 
z"/><path fill="#038F95" opacity="1.000000" stroke="none" 
	d="
M356.393921,376.001343 
	C349.522583,373.553833 342.788788,371.664276 336.655396,368.580475 
	C327.195404,363.823883 320.998413,355.891235 318.293640,345.606659 
	C317.977539,344.404846 320.126617,342.554688 321.515472,340.997437 
	C335.373596,354.335724 351.915771,363.193054 369.654053,372.801727 
	C364.443848,374.107941 360.622192,375.066040 356.393921,376.001343 
z"/><path fill="#06B4BC" opacity="1.000000" stroke="none" 
	d="
M493.021667,300.429352 
	C492.573608,296.341888 495.901733,295.917419 498.186737,295.368469 
	C502.575531,294.314087 507.212189,293.192413 511.615295,293.580841 
	C516.855591,294.043091 519.968750,298.539062 518.840393,303.645111 
	C517.445740,309.956421 518.046753,315.782593 520.838135,321.823059 
	C520.860291,324.550659 520.599792,327.029144 520.361084,329.300293 
	C513.143494,321.290436 506.236420,313.625122 499.144287,305.292480 
	C497.285248,303.423218 495.611237,302.221222 493.937256,301.019226 
	C493.597504,301.035370 493.319427,300.912262 493.021667,300.429352 
z"/><path fill="#40A3F5" opacity="1.000000" stroke="none" 
	d="
M263.001556,423.998657 
	C262.669220,426.724030 262.336914,429.449432 261.998657,432.587189 
	C261.326202,437.029144 260.659668,441.058746 259.723389,445.794250 
	C258.639435,449.995850 257.825195,453.491516 257.010986,456.987213 
	C255.693451,462.898010 254.580475,468.864441 252.992447,474.701630 
	C251.762344,479.223236 250.188385,483.695435 248.272964,487.967957 
	C247.309555,490.116913 247.196289,490.937744 250.063034,491.119568 
	C248.304489,492.572174 246.172699,493.983612 244.040894,495.395050 
	C243.657959,495.166321 243.275009,494.937592 242.892059,494.708862 
	C244.125870,487.982758 245.347458,481.254364 246.595917,474.530975 
	C249.738419,457.607513 252.893036,440.686249 256.535828,423.281494 
	C257.083588,422.075043 257.138367,421.351196 257.193176,420.627380 
	C257.193176,420.627380 257.086945,420.234955 257.488190,420.394592 
	C259.593475,421.702393 261.297516,422.850525 263.001556,423.998657 
z"/><path fill="#3C94F3" opacity="1.000000" stroke="none" 
	d="
M263.236877,423.817993 
	C261.297516,422.850525 259.593475,421.702393 257.590057,420.218689 
	C257.131317,419.684021 257.112854,419.472412 257.756927,419.093079 
	C260.775909,417.348846 260.814484,415.704803 258.388794,414.005707 
	C260.087463,404.582550 261.786163,395.159393 263.587830,385.164856 
	C264.720764,385.849304 265.582184,386.369720 266.671082,387.152710 
	C269.225800,398.939972 266.570984,410.057159 264.091858,421.583588 
	C263.855652,422.528961 263.663910,423.083130 263.236877,423.817993 
z"/><path fill="#038F95" opacity="1.000000" stroke="none" 
	d="
M329.398071,378.004089 
	C333.137726,377.623260 337.210907,377.456482 341.603210,377.529724 
	C337.858765,377.919250 333.795197,378.068695 329.398071,378.004089 
z"/><path fill="#01CBC3" opacity="1.000000" stroke="none" 
	d="
M311.350281,306.804718 
	C309.138245,302.949799 312.187012,300.697540 314.739471,298.090790 
	C313.925903,300.885437 312.761963,303.722504 311.350281,306.804718 
z"/><path fill="#40A3F5" opacity="1.000000" stroke="none" 
	d="
M375.664307,411.374939 
	C374.743225,415.785004 371.925629,414.037323 369.152405,412.662445 
	C371.089630,411.996368 373.151520,411.674988 375.664307,411.374939 
z"/><path fill="#03C0C2" opacity="1.000000" stroke="none" 
	d="
M494.099335,301.316803 
	C495.611237,302.221222 497.285248,303.423218 499.001770,305.017334 
	C497.449982,304.144470 495.855713,302.879425 494.099335,301.316803 
z"/><path fill="#40A3F5" opacity="1.000000" stroke="none" 
	d="
M258.224701,414.399780 
	C260.814484,415.704803 260.775909,417.348846 257.886047,418.980713 
	C257.682587,417.613617 257.871582,416.203735 258.224701,414.399780 
z"/><path fill="#01CBC3" opacity="1.000000" stroke="none" 
	d="
M315.325195,297.931152 
	C315.539307,297.115143 316.023468,296.142151 316.875916,295.166412 
	C316.694580,296.033844 316.144928,296.904022 315.325195,297.931152 
z"/><path fill="#3C94F3" opacity="1.000000" stroke="none" 
	d="
M257.040314,420.825378 
	C257.138367,421.351196 257.083588,422.075043 256.724701,422.901062 
	C256.576202,422.343292 256.731812,421.683319 257.040314,420.825378 
z"/><path fill="#3ABBF4" opacity="1.000000" stroke="none" 
	d="
M520.349426,399.143433 
	C520.222839,398.954407 520.355713,398.644440 520.689697,398.176147 
	C520.796753,398.352692 520.702820,398.687592 520.349426,399.143433 
z"/><path fill="#06B4BC" opacity="1.000000" stroke="none" 
	d="
M271.062164,351.262695 
	C271.350525,351.135559 271.592407,351.347961 271.853058,351.864929 
	C271.652527,351.905182 271.367126,351.716064 271.062164,351.262695 
z"/><path fill="#3C94F3" opacity="1.000000" stroke="none" 
	d="
M257.386475,457.038391 
	C257.825195,453.491516 258.639435,449.995850 259.720825,446.249268 
	C279.629913,447.030365 298.978394,444.746979 318.267120,441.229645 
	C326.517181,439.725220 335.179749,440.047455 343.212372,437.891266 
	C354.356110,434.899963 365.232147,430.716766 375.915436,426.300354 
	C380.214661,424.523102 383.777618,420.872375 387.491333,417.847961 
	C388.250580,417.229645 388.185730,415.599426 388.252014,414.215332 
	C391.846466,413.376221 395.325104,409.685669 399.841583,412.213440 
	C396.753082,417.177277 393.917236,421.735016 391.039490,426.647003 
	C384.985443,429.673523 379.024933,432.470276 372.949615,434.990265 
	C362.708588,439.238220 352.727753,444.901581 342.044708,447.138062 
	C316.874451,452.407471 291.714111,458.861420 265.565155,457.028503 
	C262.978241,456.847168 260.363678,457.059784 257.386475,457.038391 
z"/><path fill="#03C0C2" opacity="1.000000" stroke="none" 
	d="
M309.474792,322.461426 
	C309.518494,322.437195 309.431122,322.485687 309.474792,322.461426 
z"/></svg>